<svg xmlns="http://www.w3.org/2000/svg" xmlns:xlink="http://www.w3.org/1999/xlink" width="207" zoomAndPan="magnify" viewBox="0 0 155.25 30.000001" height="40" preserveAspectRatio="xMidYMid meet" version="1.0"><defs><g/><clipPath id="aaace9095f"><path d="M 2.140625 0 L 152.382812 0 L 152.382812 29.03125 L 2.140625 29.03125 Z M 2.140625 0 " clip-rule="nonzero"/></clipPath><clipPath id="e28dea8d5e"><path d="M 0.0976562 4 L 10 4 L 10 16 L 0.0976562 16 Z M 0.0976562 4 " clip-rule="nonzero"/></clipPath><clipPath id="da4280d955"><path d="M 63 4 L 73.953125 4 L 73.953125 16 L 63 16 Z M 63 4 " clip-rule="nonzero"/></clipPath><clipPath id="283838221e"><rect x="0" width="74" y="0" height="20"/></clipPath><clipPath id="74610f1cb2"><path d="M 22.585938 2.25 L 52 2.25 L 52 26.203125 L 22.585938 26.203125 Z M 22.585938 2.25 " clip-rule="nonzero"/></clipPath><clipPath id="40b5ad9df8"><path d="M 48 8 L 54.519531 8 L 54.519531 15 L 48 15 Z M 48 8 " clip-rule="nonzero"/></clipPath><clipPath id="009177107e"><path d="M 23 2.25 L 46 2.25 L 46 22 L 23 22 Z M 23 2.25 " clip-rule="nonzero"/></clipPath><clipPath id="adf71053e1"><path d="M 49 8 L 54.519531 8 L 54.519531 14 L 49 14 Z M 49 8 " clip-rule="nonzero"/></clipPath><clipPath id="0498236b08"><path d="M 0.605469 1 L 4 1 L 4 5 L 0.605469 5 Z M 0.605469 1 " clip-rule="nonzero"/></clipPath><clipPath id="18ba3cac6f"><path d="M 33 1 L 35.910156 1 L 35.910156 5 L 33 5 Z M 33 1 " clip-rule="nonzero"/></clipPath><clipPath id="ad4c67b7a0"><rect x="0" width="36" y="0" height="6"/></clipPath></defs><g clip-path="url(#aaace9095f)"><path fill="#ffffff" d="M 2.140625 0 L 152.382812 0 L 152.382812 29.03125 L 2.140625 29.03125 Z M 2.140625 0 " fill-opacity="1" fill-rule="nonzero"/><path fill="#ffffff" d="M 2.140625 0 L 152.382812 0 L 152.382812 29.03125 L 2.140625 29.03125 Z M 2.140625 0 " fill-opacity="1" fill-rule="nonzero"/></g><g transform="matrix(1, 0, 0, 1, 55, 2)"><g clip-path="url(#283838221e)"><g clip-path="url(#e28dea8d5e)"><g fill="#ffbd59" fill-opacity="1"><g transform="translate(0.270355, 15.302465)"><g><path d="M 5.359375 -5.578125 C 6.898438 -4.085938 7.992188 -2.96875 8.640625 -2.21875 C 8.972656 -1.851562 9.140625 -1.539062 9.140625 -1.28125 C 9.140625 -1.019531 8.9375 -0.710938 8.53125 -0.359375 C 8.132812 -0.015625 7.804688 0.15625 7.546875 0.15625 C 7.285156 0.15625 6.972656 -0.0546875 6.609375 -0.484375 L 3.28125 -4.28125 L 3.28125 -1.328125 C 3.28125 -1.085938 3.269531 -0.910156 3.25 -0.796875 C 3.238281 -0.691406 3.195312 -0.5625 3.125 -0.40625 C 2.976562 -0.132812 2.582031 0 1.9375 0 C 1.226562 0 0.816406 -0.191406 0.703125 -0.578125 C 0.640625 -0.734375 0.609375 -0.988281 0.609375 -1.34375 L 0.609375 -9.765625 C 0.609375 -9.992188 0.613281 -10.164062 0.625 -10.28125 C 0.644531 -10.40625 0.691406 -10.539062 0.765625 -10.6875 C 0.910156 -10.957031 1.304688 -11.09375 1.953125 -11.09375 C 2.660156 -11.09375 3.078125 -10.90625 3.203125 -10.53125 C 3.253906 -10.363281 3.28125 -10.101562 3.28125 -9.75 L 3.28125 -6.859375 C 4.65625 -8.398438 5.765625 -9.664062 6.609375 -10.65625 C 6.960938 -11.070312 7.269531 -11.28125 7.53125 -11.28125 C 7.800781 -11.28125 8.132812 -11.101562 8.53125 -10.75 C 8.9375 -10.40625 9.140625 -10.101562 9.140625 -9.84375 C 9.140625 -9.59375 8.988281 -9.289062 8.6875 -8.9375 C 8.101562 -8.257812 7.195312 -7.328125 5.96875 -6.140625 Z M 5.359375 -5.578125 "/></g></g></g></g><g fill="#ffbd59" fill-opacity="1"><g transform="translate(9.233071, 15.302465)"><g><path d="M 7.453125 -10.6875 C 7.535156 -10.84375 7.671875 -10.945312 7.859375 -11 C 8.054688 -11.0625 8.300781 -11.09375 8.59375 -11.09375 C 8.882812 -11.09375 9.113281 -11.066406 9.28125 -11.015625 C 9.457031 -10.972656 9.59375 -10.914062 9.6875 -10.84375 C 9.78125 -10.769531 9.851562 -10.664062 9.90625 -10.53125 C 9.957031 -10.363281 9.984375 -10.101562 9.984375 -9.75 L 9.984375 -1.34375 C 9.984375 -1.113281 9.972656 -0.941406 9.953125 -0.828125 C 9.941406 -0.710938 9.894531 -0.578125 9.8125 -0.421875 C 9.664062 -0.148438 9.269531 -0.015625 8.625 -0.015625 C 7.914062 -0.015625 7.503906 -0.203125 7.390625 -0.578125 C 7.328125 -0.742188 7.296875 -1.003906 7.296875 -1.359375 L 7.296875 -4.4375 L 3.28125 -4.4375 L 3.28125 -1.34375 C 3.28125 -1.113281 3.269531 -0.941406 3.25 -0.828125 C 3.238281 -0.710938 3.195312 -0.578125 3.125 -0.421875 C 2.976562 -0.148438 2.582031 -0.015625 1.9375 -0.015625 C 1.226562 -0.015625 0.816406 -0.203125 0.703125 -0.578125 C 0.640625 -0.742188 0.609375 -1.003906 0.609375 -1.359375 L 0.609375 -9.765625 C 0.609375 -9.992188 0.613281 -10.164062 0.625 -10.28125 C 0.644531 -10.40625 0.691406 -10.539062 0.765625 -10.6875 C 0.910156 -10.957031 1.304688 -11.09375 1.953125 -11.09375 C 2.660156 -11.09375 3.078125 -10.90625 3.203125 -10.53125 C 3.253906 -10.363281 3.28125 -10.101562 3.28125 -9.75 L 3.28125 -6.65625 L 7.296875 -6.65625 L 7.296875 -9.765625 C 7.296875 -9.992188 7.300781 -10.164062 7.3125 -10.28125 C 7.332031 -10.40625 7.378906 -10.539062 7.453125 -10.6875 Z M 7.453125 -10.6875 "/></g></g></g><g fill="#ffbd59" fill-opacity="1"><g transform="translate(19.104181, 15.302465)"><g><path d="M 7.015625 -10.3125 L 11.09375 -1.859375 C 11.269531 -1.515625 11.359375 -1.257812 11.359375 -1.09375 C 11.359375 -0.726562 11.066406 -0.398438 10.484375 -0.109375 C 10.140625 0.0664062 9.867188 0.15625 9.671875 0.15625 C 9.472656 0.15625 9.3125 0.109375 9.1875 0.015625 C 9.0625 -0.078125 8.96875 -0.171875 8.90625 -0.265625 C 8.851562 -0.367188 8.773438 -0.523438 8.671875 -0.734375 L 7.890625 -2.359375 L 3.6875 -2.359375 L 2.90625 -0.734375 C 2.800781 -0.523438 2.722656 -0.375 2.671875 -0.28125 C 2.617188 -0.195312 2.523438 -0.101562 2.390625 0 C 2.265625 0.09375 2.101562 0.140625 1.90625 0.140625 C 1.71875 0.140625 1.453125 0.0507812 1.109375 -0.125 C 0.523438 -0.40625 0.234375 -0.726562 0.234375 -1.09375 C 0.234375 -1.257812 0.316406 -1.515625 0.484375 -1.859375 L 4.578125 -10.328125 C 4.679688 -10.554688 4.847656 -10.738281 5.078125 -10.875 C 5.304688 -11.019531 5.546875 -11.09375 5.796875 -11.09375 C 6.335938 -11.09375 6.742188 -10.832031 7.015625 -10.3125 Z M 5.78125 -6.671875 L 4.78125 -4.609375 L 6.796875 -4.609375 Z M 5.78125 -6.671875 "/></g></g></g><g fill="#ffbd59" fill-opacity="1"><g transform="translate(29.974526, 15.302465)"><g/></g></g><g fill="#ffbd59" fill-opacity="1"><g transform="translate(33.093229, 15.302465)"><g><path d="M 1.328125 -11.109375 L 9.75 -11.109375 C 10.070312 -11.109375 10.304688 -11.070312 10.453125 -11 C 10.609375 -10.925781 10.710938 -10.804688 10.765625 -10.640625 C 10.816406 -10.484375 10.84375 -10.269531 10.84375 -10 C 10.84375 -9.738281 10.816406 -9.53125 10.765625 -9.375 C 10.710938 -9.21875 10.625 -9.109375 10.5 -9.046875 C 10.320312 -8.960938 10.066406 -8.921875 9.734375 -8.921875 L 6.84375 -8.921875 L 6.84375 -1.296875 C 6.84375 -1.066406 6.832031 -0.894531 6.8125 -0.78125 C 6.800781 -0.675781 6.757812 -0.550781 6.6875 -0.40625 C 6.613281 -0.257812 6.476562 -0.15625 6.28125 -0.09375 C 6.09375 -0.03125 5.84375 0 5.53125 0 C 5.21875 0 4.96875 -0.03125 4.78125 -0.09375 C 4.59375 -0.15625 4.457031 -0.257812 4.375 -0.40625 C 4.300781 -0.550781 4.253906 -0.679688 4.234375 -0.796875 C 4.222656 -0.910156 4.21875 -1.082031 4.21875 -1.3125 L 4.21875 -8.921875 L 1.3125 -8.921875 C 0.988281 -8.921875 0.75 -8.957031 0.59375 -9.03125 C 0.445312 -9.101562 0.347656 -9.21875 0.296875 -9.375 C 0.253906 -9.539062 0.234375 -9.753906 0.234375 -10.015625 C 0.234375 -10.285156 0.253906 -10.5 0.296875 -10.65625 C 0.347656 -10.8125 0.4375 -10.921875 0.5625 -10.984375 C 0.738281 -11.066406 0.992188 -11.109375 1.328125 -11.109375 Z M 1.328125 -11.109375 "/></g></g></g><g fill="#ffbd59" fill-opacity="1"><g transform="translate(43.448817, 15.302465)"><g><path d="M 9.09375 -1.875 C 9.25 -1.507812 9.328125 -1.25 9.328125 -1.09375 C 9.328125 -0.707031 9.015625 -0.382812 8.390625 -0.125 C 8.066406 0.0195312 7.804688 0.09375 7.609375 0.09375 C 7.410156 0.09375 7.25 0.046875 7.125 -0.046875 C 7 -0.148438 6.90625 -0.25 6.84375 -0.34375 C 6.738281 -0.539062 6.34375 -1.457031 5.65625 -3.09375 L 5.1875 -3.0625 L 3.28125 -3.0625 L 3.28125 -1.34375 C 3.28125 -1.113281 3.269531 -0.941406 3.25 -0.828125 C 3.238281 -0.710938 3.195312 -0.578125 3.125 -0.421875 C 2.976562 -0.148438 2.582031 -0.015625 1.9375 -0.015625 C 1.226562 -0.015625 0.816406 -0.203125 0.703125 -0.578125 C 0.640625 -0.742188 0.609375 -1.003906 0.609375 -1.359375 L 0.609375 -9.765625 C 0.609375 -9.992188 0.613281 -10.164062 0.625 -10.28125 C 0.644531 -10.40625 0.691406 -10.539062 0.765625 -10.6875 C 0.910156 -10.957031 1.304688 -11.09375 1.953125 -11.09375 L 5.21875 -11.09375 C 6.113281 -11.09375 6.976562 -10.769531 7.8125 -10.125 C 8.21875 -9.8125 8.550781 -9.390625 8.8125 -8.859375 C 9.070312 -8.328125 9.203125 -7.734375 9.203125 -7.078125 C 9.203125 -5.929688 8.820312 -4.988281 8.0625 -4.25 C 8.289062 -3.71875 8.632812 -2.925781 9.09375 -1.875 Z M 3.28125 -5.734375 L 5.21875 -5.734375 C 5.507812 -5.734375 5.800781 -5.84375 6.09375 -6.0625 C 6.394531 -6.289062 6.546875 -6.625 6.546875 -7.0625 C 6.546875 -7.507812 6.394531 -7.847656 6.09375 -8.078125 C 5.800781 -8.304688 5.5 -8.421875 5.1875 -8.421875 L 3.28125 -8.421875 Z M 3.28125 -5.734375 "/></g></g></g><g fill="#ffbd59" fill-opacity="1"><g transform="translate(52.290413, 15.302465)"><g><path d="M 7.015625 -10.3125 L 11.09375 -1.859375 C 11.269531 -1.515625 11.359375 -1.257812 11.359375 -1.09375 C 11.359375 -0.726562 11.066406 -0.398438 10.484375 -0.109375 C 10.140625 0.0664062 9.867188 0.15625 9.671875 0.15625 C 9.472656 0.15625 9.3125 0.109375 9.1875 0.015625 C 9.0625 -0.078125 8.96875 -0.171875 8.90625 -0.265625 C 8.851562 -0.367188 8.773438 -0.523438 8.671875 -0.734375 L 7.890625 -2.359375 L 3.6875 -2.359375 L 2.90625 -0.734375 C 2.800781 -0.523438 2.722656 -0.375 2.671875 -0.28125 C 2.617188 -0.195312 2.523438 -0.101562 2.390625 0 C 2.265625 0.09375 2.101562 0.140625 1.90625 0.140625 C 1.71875 0.140625 1.453125 0.0507812 1.109375 -0.125 C 0.523438 -0.40625 0.234375 -0.726562 0.234375 -1.09375 C 0.234375 -1.257812 0.316406 -1.515625 0.484375 -1.859375 L 4.578125 -10.328125 C 4.679688 -10.554688 4.847656 -10.738281 5.078125 -10.875 C 5.304688 -11.019531 5.546875 -11.09375 5.796875 -11.09375 C 6.335938 -11.09375 6.742188 -10.832031 7.015625 -10.3125 Z M 5.78125 -6.671875 L 4.78125 -4.609375 L 6.796875 -4.609375 Z M 5.78125 -6.671875 "/></g></g></g><g clip-path="url(#da4280d955)"><g fill="#ffbd59" fill-opacity="1"><g transform="translate(63.160757, 15.302465)"><g><path d="M 7.765625 -10.640625 C 7.867188 -10.816406 8.015625 -10.929688 8.203125 -10.984375 C 8.398438 -11.046875 8.640625 -11.078125 8.921875 -11.078125 C 9.210938 -11.078125 9.445312 -11.050781 9.625 -11 C 9.800781 -10.957031 9.929688 -10.898438 10.015625 -10.828125 C 10.097656 -10.753906 10.160156 -10.644531 10.203125 -10.5 C 10.265625 -10.34375 10.296875 -10.085938 10.296875 -9.734375 L 10.296875 -1.328125 C 10.296875 -1.085938 10.285156 -0.910156 10.265625 -0.796875 C 10.253906 -0.691406 10.207031 -0.5625 10.125 -0.40625 C 9.988281 -0.132812 9.597656 0 8.953125 0 C 8.554688 0 8.28125 -0.03125 8.125 -0.09375 C 7.976562 -0.15625 7.851562 -0.25 7.75 -0.375 C 5.476562 -3.40625 3.984375 -5.382812 3.265625 -6.3125 L 3.265625 -1.328125 C 3.265625 -1.085938 3.253906 -0.910156 3.234375 -0.796875 C 3.222656 -0.691406 3.179688 -0.5625 3.109375 -0.40625 C 2.960938 -0.132812 2.566406 0 1.921875 0 C 1.296875 0 0.910156 -0.132812 0.765625 -0.40625 C 0.691406 -0.5625 0.644531 -0.695312 0.625 -0.8125 C 0.613281 -0.9375 0.609375 -1.113281 0.609375 -1.34375 L 0.609375 -9.796875 C 0.609375 -10.179688 0.65625 -10.460938 0.75 -10.640625 C 0.84375 -10.816406 0.984375 -10.929688 1.171875 -10.984375 C 1.367188 -11.046875 1.617188 -11.078125 1.921875 -11.078125 C 2.222656 -11.078125 2.460938 -11.050781 2.640625 -11 C 2.816406 -10.945312 2.941406 -10.882812 3.015625 -10.8125 C 3.054688 -10.78125 3.171875 -10.648438 3.359375 -10.421875 C 5.492188 -7.523438 6.914062 -5.609375 7.625 -4.671875 L 7.625 -9.796875 C 7.625 -10.179688 7.671875 -10.460938 7.765625 -10.640625 Z M 7.765625 -10.640625 "/></g></g></g></g></g></g><g clip-path="url(#74610f1cb2)"><path fill="#000000" d="M 45.628906 22.402344 C 45.675781 22.425781 45.710938 22.417969 45.742188 22.417969 C 47.699219 22.410156 49.652344 22.398438 51.609375 22.386719 C 51.660156 22.386719 51.710938 22.382812 51.757812 22.386719 C 51.886719 22.398438 51.984375 22.5 51.984375 22.625 C 51.988281 22.75 51.898438 22.851562 51.769531 22.871094 C 51.722656 22.878906 51.675781 22.878906 51.628906 22.878906 C 49.464844 22.890625 47.300781 22.902344 45.132812 22.914062 C 41.046875 22.941406 36.960938 22.964844 32.871094 22.988281 C 32.84375 22.988281 32.8125 22.988281 32.785156 22.988281 C 32.773438 23.003906 32.777344 23.015625 32.78125 23.027344 C 33.003906 23.527344 32.96875 24.023438 32.765625 24.515625 C 32.484375 25.195312 31.984375 25.644531 31.292969 25.894531 C 30.953125 26.015625 30.605469 26.089844 30.25 26.109375 C 28.671875 26.203125 27.214844 25.820312 25.871094 24.996094 C 25.492188 24.761719 25.148438 24.46875 24.855469 24.128906 C 24.5625 23.789062 24.34375 23.414062 24.21875 22.984375 C 24.195312 22.910156 24.195312 22.910156 24.117188 22.910156 C 23.722656 22.914062 23.328125 22.914062 22.933594 22.914062 C 22.890625 22.914062 22.847656 22.914062 22.804688 22.910156 C 22.683594 22.890625 22.59375 22.785156 22.597656 22.664062 C 22.597656 22.550781 22.683594 22.449219 22.800781 22.429688 C 22.839844 22.421875 22.882812 22.421875 22.921875 22.421875 C 23.28125 22.421875 23.640625 22.417969 24.003906 22.417969 C 24.027344 22.417969 24.046875 22.417969 24.070312 22.417969 C 24.097656 22.417969 24.109375 22.402344 24.105469 22.378906 C 24.105469 22.371094 24.105469 22.359375 24.101562 22.351562 C 24.054688 21.710938 24.203125 21.113281 24.457031 20.535156 C 24.753906 19.867188 25.164062 19.28125 25.644531 18.738281 C 25.675781 18.699219 25.707031 18.667969 25.738281 18.632812 C 25.777344 18.59375 25.792969 18.589844 25.726562 18.539062 C 25.671875 18.496094 25.617188 18.449219 25.5625 18.40625 C 25.066406 17.996094 24.628906 17.527344 24.273438 16.988281 C 23.867188 16.375 23.621094 15.699219 23.503906 14.976562 C 23.304688 13.738281 23.441406 12.527344 23.816406 11.339844 C 24.085938 10.472656 24.484375 9.660156 24.933594 8.875 C 25.164062 8.476562 25.410156 8.089844 25.679688 7.714844 C 25.707031 7.671875 25.730469 7.628906 25.726562 7.578125 C 25.726562 7.546875 25.738281 7.511719 25.746094 7.476562 C 26.070312 6.429688 26.476562 5.417969 27.03125 4.464844 C 27.3125 3.976562 27.636719 3.515625 28.039062 3.117188 C 28.222656 2.9375 28.425781 2.777344 28.644531 2.636719 C 29.136719 2.335938 29.664062 2.25 30.230469 2.351562 C 30.691406 2.433594 31.117188 2.605469 31.527344 2.828125 C 32.128906 3.148438 32.671875 3.554688 33.171875 4.011719 C 33.226562 4.058594 33.277344 4.078125 33.351562 4.078125 C 33.96875 4.0625 34.582031 4.085938 35.199219 4.140625 C 36.085938 4.214844 36.949219 4.394531 37.796875 4.644531 C 38.152344 4.753906 38.507812 4.863281 38.851562 4.996094 C 38.917969 5.019531 38.972656 5.015625 39.039062 4.984375 C 39.617188 4.675781 40.214844 4.429688 40.847656 4.265625 C 41.160156 4.1875 41.472656 4.136719 41.796875 4.121094 C 42.074219 4.109375 42.347656 4.136719 42.617188 4.203125 C 43.054688 4.316406 43.40625 4.550781 43.707031 4.878906 C 44.03125 5.230469 44.261719 5.636719 44.453125 6.070312 C 44.703125 6.640625 44.875 7.234375 45.007812 7.84375 C 45.167969 8.558594 45.269531 9.28125 45.324219 10.007812 C 45.335938 10.179688 45.375 10.332031 45.441406 10.488281 C 45.710938 11.148438 45.941406 11.820312 46.082031 12.519531 C 46.234375 13.269531 46.296875 14.023438 46.261719 14.789062 C 46.246094 15.074219 46.21875 15.359375 46.179688 15.644531 C 46.167969 15.726562 46.167969 15.730469 46.253906 15.746094 C 46.609375 15.820312 46.957031 15.925781 47.28125 16.09375 C 47.371094 16.140625 47.457031 16.191406 47.542969 16.242188 C 48.058594 16.570312 48.347656 17.046875 48.433594 17.648438 C 48.539062 18.339844 48.410156 19 48.148438 19.636719 C 47.929688 20.152344 47.613281 20.601562 47.246094 21.019531 C 46.796875 21.523438 46.289062 21.949219 45.738281 22.332031 C 45.703125 22.351562 45.675781 22.371094 45.628906 22.402344 Z M 45.289062 22.027344 C 45.476562 21.917969 45.648438 21.785156 45.816406 21.65625 C 46.128906 21.414062 46.429688 21.160156 46.695312 20.871094 C 46.8125 20.757812 46.921875 20.644531 47.015625 20.511719 C 47.257812 20.234375 47.453125 19.929688 47.613281 19.597656 C 47.679688 19.460938 47.742188 19.324219 47.78125 19.175781 C 47.785156 19.164062 47.792969 19.15625 47.792969 19.148438 C 47.941406 18.691406 48.011719 18.226562 47.945312 17.746094 C 47.878906 17.257812 47.644531 16.878906 47.214844 16.625 C 46.859375 16.417969 46.476562 16.296875 46.082031 16.222656 C 46.0625 16.25 46.054688 16.28125 46.050781 16.308594 C 45.96875 16.671875 45.863281 17.03125 45.726562 17.378906 C 45.300781 18.496094 44.617188 19.40625 43.617188 20.066406 C 42.941406 20.507812 42.210938 20.832031 41.445312 21.066406 C 40.1875 21.449219 38.898438 21.617188 37.589844 21.667969 C 36.949219 21.691406 36.304688 21.679688 35.660156 21.632812 C 35.152344 21.597656 34.644531 21.550781 34.140625 21.480469 C 33.4375 21.390625 32.734375 21.273438 32.039062 21.125 C 30.984375 20.90625 29.945312 20.625 28.933594 20.246094 C 27.992188 19.898438 27.085938 19.46875 26.246094 18.90625 C 26.191406 18.867188 26.1875 18.871094 26.132812 18.929688 C 25.804688 19.28125 25.511719 19.660156 25.257812 20.070312 C 24.988281 20.515625 24.765625 20.980469 24.65625 21.492188 C 24.550781 21.972656 24.558594 22.449219 24.714844 22.914062 C 24.753906 23.050781 24.8125 23.183594 24.882812 23.308594 C 25.117188 23.738281 25.449219 24.078125 25.835938 24.367188 C 25.839844 24.375 25.847656 24.375 25.851562 24.375 C 26.003906 24.503906 26.167969 24.609375 26.34375 24.699219 C 26.351562 24.703125 26.355469 24.710938 26.363281 24.71875 C 26.8125 24.972656 27.285156 25.175781 27.78125 25.320312 C 28.53125 25.550781 29.296875 25.664062 30.078125 25.625 C 30.410156 25.609375 30.734375 25.554688 31.050781 25.453125 C 31.433594 25.328125 31.769531 25.128906 32.019531 24.8125 C 32.222656 24.554688 32.359375 24.261719 32.414062 23.9375 C 32.464844 23.621094 32.398438 23.332031 32.238281 23.0625 C 32.089844 22.8125 31.890625 22.605469 31.667969 22.421875 C 31.214844 22.046875 30.699219 21.773438 30.160156 21.546875 C 30.125 21.53125 30.085938 21.519531 30.050781 21.496094 C 29.949219 21.429688 29.90625 21.308594 29.945312 21.199219 C 29.988281 21.089844 30.105469 21.023438 30.230469 21.050781 C 30.273438 21.058594 30.3125 21.074219 30.351562 21.089844 C 30.714844 21.238281 31.066406 21.417969 31.402344 21.625 C 31.765625 21.847656 32.101562 22.105469 32.382812 22.425781 C 32.425781 22.472656 32.46875 22.488281 32.527344 22.488281 C 35.835938 22.46875 39.148438 22.449219 42.457031 22.433594 C 43.152344 22.429688 43.851562 22.425781 44.546875 22.421875 C 44.585938 22.421875 44.625 22.425781 44.664062 22.402344 C 44.878906 22.289062 45.09375 22.171875 45.289062 22.027344 Z M 35.101562 4.636719 C 34.980469 4.613281 34.859375 4.613281 34.738281 4.609375 C 34.714844 4.605469 34.695312 4.601562 34.671875 4.597656 C 34.203125 4.570312 33.734375 4.566406 33.261719 4.574219 C 33.179688 4.578125 33.097656 4.578125 33.015625 4.550781 C 32.96875 4.503906 32.921875 4.449219 32.871094 4.402344 C 32.371094 3.949219 31.832031 3.542969 31.234375 3.226562 C 30.910156 3.054688 30.574219 2.921875 30.214844 2.84375 C 29.6875 2.734375 29.210938 2.824219 28.773438 3.140625 C 28.632812 3.238281 28.503906 3.347656 28.382812 3.46875 C 28.066406 3.785156 27.804688 4.140625 27.570312 4.519531 C 26.988281 5.476562 26.570312 6.507812 26.234375 7.574219 C 26.226562 7.605469 26.21875 7.640625 26.21875 7.671875 C 26.230469 7.765625 26.191406 7.839844 26.140625 7.914062 C 25.738281 8.472656 25.378906 9.0625 25.054688 9.675781 C 24.636719 10.476562 24.289062 11.3125 24.097656 12.199219 C 23.898438 13.113281 23.839844 14.03125 24.003906 14.953125 C 24.125 15.628906 24.367188 16.257812 24.761719 16.820312 C 25.113281 17.320312 25.535156 17.746094 26.011719 18.125 C 26.636719 18.617188 27.320312 19.007812 28.039062 19.34375 C 29.183594 19.871094 30.378906 20.242188 31.601562 20.523438 C 32.574219 20.75 33.550781 20.914062 34.539062 21.03125 C 35.070312 21.09375 35.605469 21.136719 36.144531 21.164062 C 37.015625 21.203125 37.882812 21.175781 38.753906 21.089844 C 39.433594 21.019531 40.109375 20.90625 40.773438 20.738281 C 41.484375 20.558594 42.171875 20.308594 42.824219 19.964844 C 43.980469 19.351562 44.800781 18.441406 45.265625 17.214844 C 45.566406 16.421875 45.726562 15.601562 45.769531 14.753906 C 45.804688 13.914062 45.722656 13.085938 45.519531 12.273438 C 45.371094 11.664062 45.15625 11.082031 44.914062 10.503906 C 44.878906 10.421875 44.855469 10.335938 44.847656 10.246094 C 44.816406 9.777344 44.765625 9.316406 44.695312 8.851562 C 44.597656 8.222656 44.464844 7.597656 44.273438 6.992188 C 44.125 6.527344 43.945312 6.082031 43.6875 5.667969 C 43.535156 5.425781 43.359375 5.203125 43.140625 5.015625 C 42.882812 4.796875 42.578125 4.675781 42.242188 4.632812 C 41.871094 4.589844 41.503906 4.628906 41.140625 4.707031 C 40.445312 4.859375 39.796875 5.128906 39.171875 5.472656 C 39.109375 5.507812 39.042969 5.539062 38.96875 5.546875 C 38.910156 5.539062 38.855469 5.519531 38.796875 5.5 C 38.480469 5.378906 38.160156 5.269531 37.832031 5.171875 C 37.644531 5.117188 37.457031 5.054688 37.265625 5.015625 C 37.1875 4.976562 37.105469 4.976562 37.023438 4.953125 C 37.011719 4.9375 36.992188 4.9375 36.976562 4.933594 C 36.574219 4.835938 36.164062 4.753906 35.753906 4.699219 C 35.535156 4.675781 35.320312 4.640625 35.101562 4.636719 Z M 35.101562 4.636719 " fill-opacity="1" fill-rule="nonzero"/></g><g clip-path="url(#40b5ad9df8)"><path fill="#000000" d="M 54.320312 9.933594 C 54.320312 10.238281 54.253906 10.535156 54.164062 10.824219 C 54.136719 10.898438 54.144531 10.960938 54.179688 11.035156 C 54.308594 11.292969 54.410156 11.558594 54.46875 11.839844 C 54.5 12.015625 54.511719 12.191406 54.480469 12.371094 C 54.4375 12.632812 54.296875 12.832031 54.074219 12.976562 C 53.871094 13.109375 53.640625 13.171875 53.402344 13.214844 C 53.199219 13.25 52.992188 13.265625 52.785156 13.269531 C 52.722656 13.269531 52.679688 13.289062 52.636719 13.332031 C 52.457031 13.507812 52.261719 13.675781 52.046875 13.808594 C 51.871094 13.917969 51.683594 14.003906 51.480469 14.042969 C 51.242188 14.082031 51.023438 14.035156 50.820312 13.898438 C 50.6875 13.8125 50.582031 13.695312 50.488281 13.570312 C 50.300781 13.308594 50.175781 13.019531 50.074219 12.71875 C 50.054688 12.660156 50.023438 12.617188 49.964844 12.589844 C 49.746094 12.476562 49.542969 12.347656 49.351562 12.195312 C 49.210938 12.078125 49.085938 11.953125 48.984375 11.800781 C 48.796875 11.507812 48.773438 11.203125 48.914062 10.886719 C 49.003906 10.6875 49.136719 10.519531 49.285156 10.367188 C 49.417969 10.226562 49.5625 10.097656 49.722656 9.984375 C 49.800781 9.929688 49.835938 9.867188 49.847656 9.777344 C 49.882812 9.546875 49.945312 9.328125 50.027344 9.109375 C 50.078125 8.984375 50.132812 8.859375 50.210938 8.746094 C 50.46875 8.355469 50.832031 8.214844 51.285156 8.320312 C 51.535156 8.375 51.761719 8.484375 51.980469 8.613281 C 52.082031 8.675781 52.179688 8.738281 52.273438 8.804688 C 52.328125 8.847656 52.382812 8.855469 52.449219 8.84375 C 52.710938 8.800781 52.972656 8.792969 53.238281 8.808594 C 53.410156 8.820312 53.574219 8.855469 53.734375 8.921875 C 54.046875 9.054688 54.226562 9.292969 54.292969 9.625 C 54.320312 9.726562 54.320312 9.828125 54.320312 9.933594 Z M 53.816406 9.9375 C 53.816406 9.886719 53.820312 9.835938 53.816406 9.789062 C 53.796875 9.546875 53.6875 9.417969 53.460938 9.351562 C 53.371094 9.328125 53.285156 9.3125 53.191406 9.304688 C 52.898438 9.285156 52.605469 9.316406 52.316406 9.371094 C 52.25 9.382812 52.203125 9.367188 52.152344 9.328125 C 51.964844 9.191406 51.777344 9.0625 51.574219 8.957031 C 51.433594 8.886719 51.285156 8.828125 51.132812 8.796875 C 50.9375 8.761719 50.777344 8.816406 50.664062 8.984375 C 50.601562 9.074219 50.550781 9.167969 50.511719 9.265625 C 50.410156 9.515625 50.351562 9.777344 50.320312 10.039062 C 50.304688 10.148438 50.261719 10.21875 50.171875 10.28125 C 49.953125 10.429688 49.753906 10.597656 49.578125 10.800781 C 49.496094 10.894531 49.425781 10.992188 49.375 11.105469 C 49.308594 11.253906 49.316406 11.390625 49.40625 11.523438 C 49.472656 11.625 49.554688 11.707031 49.640625 11.78125 C 49.824219 11.933594 50.027344 12.058594 50.234375 12.167969 C 50.308594 12.207031 50.402344 12.230469 50.453125 12.289062 C 50.5 12.347656 50.511719 12.441406 50.539062 12.519531 C 50.613281 12.742188 50.699219 12.957031 50.820312 13.160156 C 50.886719 13.273438 50.964844 13.375 51.066406 13.460938 C 51.175781 13.550781 51.296875 13.578125 51.433594 13.542969 C 51.597656 13.503906 51.742188 13.421875 51.878906 13.324219 C 52.082031 13.1875 52.257812 13.019531 52.425781 12.84375 C 52.476562 12.789062 52.527344 12.769531 52.601562 12.769531 C 52.855469 12.777344 53.105469 12.765625 53.355469 12.714844 C 53.507812 12.6875 53.660156 12.644531 53.796875 12.5625 C 53.917969 12.488281 53.988281 12.386719 54 12.246094 C 54.007812 12.167969 54.003906 12.085938 53.992188 12.007812 C 53.945312 11.722656 53.835938 11.464844 53.710938 11.207031 C 53.675781 11.132812 53.617188 11.0625 53.605469 10.980469 C 53.59375 10.898438 53.648438 10.816406 53.671875 10.734375 C 53.746094 10.472656 53.816406 10.210938 53.816406 9.9375 Z M 53.816406 9.9375 " fill-opacity="1" fill-rule="nonzero"/></g><path fill="#000000" d="M 47.28125 15.652344 C 47.140625 15.648438 47.039062 15.558594 47.027344 15.433594 C 47.019531 15.378906 47.027344 15.328125 47.050781 15.277344 C 47.292969 14.714844 47.605469 14.191406 48.039062 13.75 C 48.410156 13.371094 48.855469 13.101562 49.332031 12.875 C 49.421875 12.832031 49.511719 12.792969 49.605469 12.753906 C 49.648438 12.734375 49.695312 12.726562 49.742188 12.726562 C 49.855469 12.726562 49.945312 12.792969 49.976562 12.894531 C 50.007812 12.996094 49.972656 13.101562 49.886719 13.164062 C 49.847656 13.195312 49.796875 13.210938 49.753906 13.230469 C 49.503906 13.332031 49.261719 13.457031 49.03125 13.59375 C 48.613281 13.847656 48.265625 14.179688 47.992188 14.585938 C 47.8125 14.851562 47.65625 15.132812 47.527344 15.425781 C 47.511719 15.460938 47.496094 15.5 47.476562 15.53125 C 47.425781 15.613281 47.351562 15.648438 47.28125 15.652344 Z M 47.28125 15.652344 " fill-opacity="1" fill-rule="nonzero"/><g clip-path="url(#009177107e)"><path fill="#ffffff" d="M 34.738281 4.609375 C 34.859375 4.613281 34.980469 4.613281 35.101562 4.636719 C 35.105469 4.800781 35.066406 4.960938 35.0625 5.125 C 35.050781 5.625 35.035156 6.125 35.160156 6.617188 C 35.210938 6.820312 35.273438 7.023438 35.402344 7.191406 C 35.550781 7.382812 35.753906 7.449219 35.980469 7.300781 C 36.089844 7.226562 36.179688 7.132812 36.253906 7.027344 C 36.480469 6.730469 36.625 6.390625 36.746094 6.039062 C 36.839844 5.78125 36.910156 5.519531 36.960938 5.25 C 36.980469 5.152344 37.011719 5.058594 37.019531 4.957031 C 37.097656 4.980469 37.183594 4.984375 37.261719 5.019531 C 37.257812 5.050781 37.261719 5.085938 37.253906 5.117188 C 37.214844 5.3125 37.222656 5.511719 37.203125 5.710938 C 37.1875 5.859375 37.207031 6.003906 37.222656 6.148438 C 37.246094 6.328125 37.28125 6.507812 37.375 6.664062 C 37.496094 6.859375 37.605469 6.898438 37.789062 6.878906 C 37.875 6.871094 37.953125 6.832031 38.027344 6.785156 C 38.207031 6.671875 38.351562 6.515625 38.476562 6.347656 C 38.667969 6.101562 38.824219 5.828125 38.96875 5.550781 C 39.042969 5.539062 39.105469 5.511719 39.171875 5.476562 C 39.792969 5.132812 40.445312 4.859375 41.140625 4.707031 C 41.503906 4.628906 41.871094 4.589844 42.242188 4.636719 C 42.578125 4.675781 42.878906 4.800781 43.140625 5.019531 C 43.359375 5.203125 43.53125 5.425781 43.683594 5.667969 C 43.941406 6.082031 44.121094 6.53125 44.269531 6.992188 C 44.464844 7.601562 44.597656 8.226562 44.691406 8.855469 C 44.765625 9.316406 44.816406 9.78125 44.847656 10.246094 C 44.851562 10.339844 44.875 10.421875 44.910156 10.507812 C 45.152344 11.082031 45.367188 11.667969 45.519531 12.273438 C 45.71875 13.089844 45.804688 13.917969 45.765625 14.753906 C 45.726562 15.601562 45.566406 16.421875 45.265625 17.214844 C 44.796875 18.445312 43.980469 19.355469 42.824219 19.964844 C 42.167969 20.3125 41.484375 20.558594 40.769531 20.742188 C 40.109375 20.910156 39.433594 21.019531 38.75 21.089844 C 37.882812 21.179688 37.011719 21.207031 36.140625 21.164062 C 35.605469 21.140625 35.070312 21.09375 34.535156 21.03125 C 33.550781 20.914062 32.570312 20.75 31.601562 20.527344 C 30.375 20.242188 29.179688 19.871094 28.039062 19.34375 C 27.316406 19.011719 26.632812 18.621094 26.007812 18.125 C 25.53125 17.75 25.109375 17.320312 24.757812 16.824219 C 24.363281 16.257812 24.121094 15.632812 24.003906 14.957031 C 23.84375 14.03125 23.898438 13.113281 24.097656 12.199219 C 24.289062 11.308594 24.636719 10.476562 25.058594 9.671875 C 25.378906 9.0625 25.742188 8.472656 26.144531 7.910156 C 26.195312 7.839844 26.234375 7.765625 26.222656 7.671875 C 26.21875 7.636719 26.226562 7.601562 26.238281 7.570312 C 26.574219 6.503906 26.988281 5.476562 27.574219 4.519531 C 27.808594 4.140625 28.070312 3.78125 28.386719 3.46875 C 28.503906 3.347656 28.636719 3.238281 28.773438 3.136719 C 29.210938 2.824219 29.695312 2.730469 30.21875 2.84375 C 30.574219 2.917969 30.910156 3.054688 31.234375 3.222656 C 31.835938 3.542969 32.375 3.945312 32.871094 4.402344 C 32.921875 4.449219 32.972656 4.5 33.019531 4.550781 C 33.011719 4.632812 33.023438 4.714844 33.035156 4.796875 C 33.0625 5.039062 33.113281 5.277344 33.195312 5.503906 C 33.269531 5.703125 33.355469 5.894531 33.519531 6.035156 C 33.597656 6.097656 33.683594 6.136719 33.785156 6.128906 C 33.90625 6.121094 34.003906 6.058594 34.089844 5.976562 C 34.214844 5.855469 34.316406 5.714844 34.394531 5.558594 C 34.550781 5.257812 34.660156 4.9375 34.738281 4.609375 Z M 40.535156 13.132812 C 39.171875 13.113281 38.070312 14.242188 38.058594 15.570312 C 38.046875 16.960938 39.15625 18.070312 40.519531 18.074219 C 41.914062 18.078125 42.996094 16.984375 43.003906 15.609375 C 43.007812 14.222656 41.882812 13.121094 40.535156 13.132812 Z M 29.507812 11.347656 C 28.140625 11.332031 27.042969 12.457031 27.027344 13.785156 C 27.011719 15.175781 28.125 16.289062 29.484375 16.292969 C 30.882812 16.296875 31.96875 15.203125 31.972656 13.820312 C 31.972656 12.441406 30.855469 11.339844 29.507812 11.347656 Z M 34.1875 15.964844 C 34.011719 15.894531 33.859375 15.8125 33.707031 15.722656 C 33.644531 15.6875 33.640625 15.6875 33.667969 15.613281 C 33.71875 15.472656 33.746094 15.324219 33.742188 15.171875 C 33.742188 15.027344 33.644531 14.925781 33.511719 14.917969 C 33.375 14.910156 33.269531 15.007812 33.253906 15.152344 C 33.246094 15.207031 33.242188 15.265625 33.234375 15.320312 C 33.207031 15.496094 33.121094 15.625 32.96875 15.710938 C 32.878906 15.761719 32.785156 15.800781 32.683594 15.832031 C 32.648438 15.84375 32.609375 15.855469 32.574219 15.875 C 32.472656 15.933594 32.421875 16.042969 32.453125 16.148438 C 32.480469 16.257812 32.574219 16.328125 32.683594 16.332031 C 32.722656 16.335938 32.757812 16.324219 32.792969 16.316406 C 32.960938 16.269531 33.121094 16.203125 33.265625 16.105469 C 33.3125 16.070312 33.34375 16.074219 33.390625 16.105469 C 33.519531 16.1875 33.648438 16.257812 33.785156 16.324219 C 34.308594 16.585938 34.863281 16.726562 35.453125 16.695312 C 35.5 16.691406 35.546875 16.691406 35.589844 16.671875 C 35.691406 16.636719 35.757812 16.539062 35.753906 16.433594 C 35.75 16.332031 35.679688 16.242188 35.582031 16.210938 C 35.53125 16.195312 35.480469 16.195312 35.429688 16.195312 C 35.296875 16.203125 35.164062 16.199219 35.03125 16.1875 C 34.90625 16.179688 34.78125 16.160156 34.65625 16.121094 C 34.660156 16.105469 34.664062 16.09375 34.667969 16.082031 C 34.753906 15.820312 34.84375 15.5625 34.929688 15.304688 C 34.957031 15.230469 34.957031 15.234375 35.03125 15.234375 C 35.09375 15.234375 35.160156 15.234375 35.222656 15.230469 C 35.402344 15.214844 35.566406 15.160156 35.714844 15.050781 C 35.960938 14.867188 36.042969 14.570312 35.929688 14.285156 C 35.875 14.152344 35.792969 14.039062 35.6875 13.945312 C 35.4375 13.722656 35.136719 13.617188 34.808594 13.617188 C 34.59375 13.617188 34.390625 13.667969 34.214844 13.800781 C 34.003906 13.957031 33.910156 14.167969 33.953125 14.429688 C 33.976562 14.574219 34.046875 14.695312 34.140625 14.808594 C 34.222656 14.910156 34.320312 14.988281 34.429688 15.050781 C 34.464844 15.070312 34.480469 15.089844 34.464844 15.128906 C 34.375 15.40625 34.285156 15.683594 34.1875 15.964844 Z M 32.128906 12.964844 C 32.125 13.507812 32.628906 13.898438 33.140625 13.753906 C 33.566406 13.632812 33.816406 13.164062 33.683594 12.730469 C 33.582031 12.394531 33.289062 12.160156 32.957031 12.152344 C 32.496094 12.140625 32.128906 12.496094 32.128906 12.964844 Z M 37.15625 13.921875 C 37.1875 13.90625 37.214844 13.886719 37.242188 13.871094 C 37.449219 13.757812 37.652344 13.644531 37.855469 13.53125 C 37.894531 13.511719 37.933594 13.492188 37.964844 13.460938 C 38.046875 13.382812 38.066406 13.257812 38.011719 13.15625 C 37.957031 13.0625 37.847656 13.019531 37.734375 13.046875 C 37.691406 13.054688 37.652344 13.074219 37.617188 13.097656 C 37.273438 13.289062 36.925781 13.480469 36.578125 13.675781 C 36.546875 13.695312 36.507812 13.714844 36.476562 13.738281 C 36.359375 13.84375 36.359375 14.019531 36.476562 14.125 C 36.511719 14.15625 36.550781 14.171875 36.589844 14.195312 C 36.914062 14.367188 37.234375 14.542969 37.558594 14.710938 C 37.59375 14.730469 37.628906 14.746094 37.667969 14.757812 C 37.78125 14.792969 37.898438 14.746094 37.953125 14.648438 C 38.007812 14.554688 37.984375 14.425781 37.902344 14.347656 C 37.871094 14.316406 37.832031 14.296875 37.792969 14.277344 C 37.609375 14.179688 37.421875 14.078125 37.238281 13.980469 C 37.210938 13.96875 37.175781 13.960938 37.15625 13.921875 Z M 37.15625 13.921875 " fill-opacity="1" fill-rule="nonzero"/></g><path fill="#ffffff" d="M 47.015625 20.511719 C 46.921875 20.640625 46.8125 20.757812 46.699219 20.871094 C 46.648438 20.847656 46.617188 20.800781 46.585938 20.765625 C 46.5 20.671875 46.417969 20.570312 46.335938 20.480469 C 46.230469 20.367188 46.109375 20.269531 45.992188 20.175781 C 45.785156 20.011719 45.566406 19.878906 45.3125 19.800781 C 45.195312 19.765625 45.078125 19.75 44.957031 19.765625 C 44.835938 19.785156 44.722656 19.835938 44.648438 19.945312 C 44.535156 20.113281 44.515625 20.300781 44.535156 20.492188 C 44.574219 20.84375 44.710938 21.167969 44.886719 21.472656 C 45.003906 21.671875 45.140625 21.855469 45.289062 22.03125 C 45.09375 22.171875 44.882812 22.292969 44.671875 22.410156 C 44.632812 22.433594 44.59375 22.429688 44.554688 22.429688 C 43.855469 22.433594 43.160156 22.433594 42.460938 22.441406 C 39.15625 22.460938 35.84375 22.476562 32.535156 22.496094 C 32.476562 22.496094 32.433594 22.480469 32.390625 22.433594 C 32.109375 22.109375 31.773438 21.855469 31.410156 21.628906 C 31.078125 21.421875 30.722656 21.246094 30.359375 21.097656 C 30.316406 21.082031 30.277344 21.0625 30.238281 21.058594 C 30.113281 21.03125 29.996094 21.09375 29.953125 21.207031 C 29.914062 21.316406 29.953125 21.4375 30.058594 21.503906 C 30.09375 21.523438 30.132812 21.539062 30.167969 21.554688 C 30.707031 21.78125 31.222656 22.054688 31.675781 22.429688 C 31.898438 22.617188 32.09375 22.820312 32.246094 23.070312 C 32.410156 23.339844 32.472656 23.628906 32.421875 23.945312 C 32.367188 24.269531 32.230469 24.5625 32.027344 24.816406 C 31.773438 25.136719 31.4375 25.332031 31.058594 25.460938 C 30.742188 25.5625 30.417969 25.613281 30.085938 25.632812 C 29.300781 25.671875 28.535156 25.558594 27.789062 25.328125 C 27.796875 25.304688 27.800781 25.28125 27.8125 25.261719 C 27.957031 24.976562 28.070312 24.679688 28.101562 24.355469 C 28.121094 24.203125 28.109375 24.058594 28.0625 23.921875 C 27.976562 23.675781 27.796875 23.582031 27.589844 23.601562 C 27.453125 23.613281 27.320312 23.664062 27.199219 23.738281 C 26.898438 23.917969 26.671875 24.171875 26.476562 24.460938 C 26.425781 24.535156 26.367188 24.609375 26.351562 24.703125 C 26.175781 24.617188 26.007812 24.507812 25.859375 24.378906 C 25.898438 24.371094 25.921875 24.339844 25.945312 24.3125 C 26.070312 24.175781 26.191406 24.027344 26.304688 23.875 C 26.515625 23.59375 26.6875 23.289062 26.792969 22.953125 C 26.859375 22.746094 26.902344 22.539062 26.851562 22.324219 C 26.808594 22.140625 26.703125 22.007812 26.511719 21.953125 C 26.453125 21.9375 26.390625 21.925781 26.328125 21.929688 C 26.171875 21.941406 26.015625 21.972656 25.871094 22.039062 C 25.648438 22.140625 25.4375 22.265625 25.246094 22.429688 C 25.105469 22.546875 24.960938 22.667969 24.847656 22.816406 C 24.8125 22.859375 24.78125 22.910156 24.71875 22.921875 C 24.5625 22.453125 24.554688 21.976562 24.660156 21.5 C 24.769531 20.988281 24.992188 20.519531 25.261719 20.078125 C 25.515625 19.667969 25.808594 19.285156 26.140625 18.933594 C 26.195312 18.875 26.195312 18.875 26.25 18.914062 C 27.089844 19.472656 27.996094 19.902344 28.941406 20.253906 C 29.949219 20.628906 30.992188 20.90625 32.042969 21.132812 C 32.742188 21.277344 33.4375 21.394531 34.144531 21.488281 C 34.652344 21.550781 35.15625 21.601562 35.667969 21.636719 C 36.308594 21.683594 36.953125 21.691406 37.597656 21.671875 C 38.90625 21.625 40.195312 21.457031 41.449219 21.070312 C 42.21875 20.835938 42.949219 20.515625 43.621094 20.070312 C 44.621094 19.410156 45.308594 18.5 45.730469 17.382812 C 45.867188 17.035156 45.972656 16.679688 46.054688 16.3125 C 46.0625 16.285156 46.066406 16.253906 46.085938 16.226562 C 46.484375 16.300781 46.863281 16.425781 47.21875 16.628906 C 47.648438 16.882812 47.882812 17.261719 47.949219 17.753906 C 48.015625 18.230469 47.949219 18.695312 47.796875 19.152344 C 47.796875 19.160156 47.789062 19.167969 47.785156 19.179688 C 47.695312 19.105469 47.585938 19.058594 47.480469 19.011719 C 47.277344 18.917969 47.0625 18.863281 46.839844 18.886719 C 46.683594 18.898438 46.492188 19 46.445312 19.191406 C 46.417969 19.3125 46.421875 19.429688 46.445312 19.546875 C 46.484375 19.742188 46.570312 19.917969 46.675781 20.085938 C 46.773438 20.238281 46.894531 20.375 47.015625 20.511719 Z M 47.015625 20.511719 " fill-opacity="1" fill-rule="nonzero"/><path fill="#d1c8c8" d="M 37.019531 4.957031 C 37.011719 5.058594 36.984375 5.152344 36.964844 5.25 C 36.910156 5.515625 36.839844 5.78125 36.75 6.035156 C 36.625 6.386719 36.484375 6.726562 36.257812 7.027344 C 36.179688 7.128906 36.09375 7.222656 35.980469 7.296875 C 35.753906 7.445312 35.550781 7.378906 35.40625 7.191406 C 35.273438 7.019531 35.210938 6.816406 35.164062 6.613281 C 35.039062 6.125 35.054688 5.621094 35.0625 5.121094 C 35.066406 4.957031 35.105469 4.796875 35.101562 4.632812 C 35.320312 4.640625 35.539062 4.671875 35.753906 4.703125 C 36.167969 4.757812 36.574219 4.835938 36.976562 4.9375 C 36.992188 4.941406 37.007812 4.945312 37.019531 4.957031 Z M 37.019531 4.957031 " fill-opacity="1" fill-rule="nonzero"/><path fill="#d1c8c8" d="M 24.71875 22.914062 C 24.78125 22.910156 24.8125 22.855469 24.847656 22.8125 C 24.960938 22.664062 25.105469 22.542969 25.246094 22.421875 C 25.4375 22.261719 25.644531 22.136719 25.871094 22.035156 C 26.015625 21.96875 26.167969 21.9375 26.328125 21.925781 C 26.390625 21.921875 26.453125 21.933594 26.511719 21.949219 C 26.703125 22 26.808594 22.132812 26.851562 22.320312 C 26.902344 22.535156 26.855469 22.742188 26.792969 22.945312 C 26.6875 23.28125 26.515625 23.585938 26.304688 23.871094 C 26.191406 24.019531 26.070312 24.167969 25.945312 24.308594 C 25.921875 24.335938 25.898438 24.367188 25.859375 24.375 C 25.851562 24.375 25.847656 24.375 25.839844 24.371094 C 25.453125 24.078125 25.121094 23.738281 24.886719 23.3125 C 24.816406 23.183594 24.757812 23.054688 24.71875 22.914062 Z M 24.71875 22.914062 " fill-opacity="1" fill-rule="nonzero"/><path fill="#d1c8c8" d="M 45.289062 22.027344 C 45.136719 21.855469 45 21.667969 44.882812 21.46875 C 44.710938 21.164062 44.570312 20.84375 44.53125 20.488281 C 44.511719 20.296875 44.535156 20.109375 44.648438 19.945312 C 44.722656 19.835938 44.832031 19.78125 44.957031 19.765625 C 45.074219 19.75 45.195312 19.761719 45.3125 19.796875 C 45.5625 19.878906 45.785156 20.007812 45.988281 20.171875 C 46.109375 20.269531 46.226562 20.363281 46.332031 20.476562 C 46.417969 20.570312 46.496094 20.667969 46.582031 20.761719 C 46.617188 20.800781 46.648438 20.84375 46.695312 20.871094 C 46.429688 21.160156 46.128906 21.414062 45.816406 21.652344 C 45.648438 21.785156 45.476562 21.917969 45.289062 22.027344 Z M 45.289062 22.027344 " fill-opacity="1" fill-rule="nonzero"/><path fill="#d1c8c8" d="M 38.964844 5.550781 C 38.820312 5.828125 38.667969 6.097656 38.476562 6.347656 C 38.347656 6.515625 38.207031 6.671875 38.027344 6.785156 C 37.953125 6.835938 37.875 6.871094 37.785156 6.878906 C 37.601562 6.898438 37.492188 6.859375 37.375 6.664062 C 37.277344 6.507812 37.242188 6.328125 37.222656 6.148438 C 37.207031 6.003906 37.1875 5.859375 37.199219 5.710938 C 37.21875 5.515625 37.214844 5.3125 37.253906 5.117188 C 37.261719 5.085938 37.253906 5.050781 37.257812 5.019531 C 37.449219 5.058594 37.636719 5.121094 37.824219 5.175781 C 38.152344 5.277344 38.46875 5.382812 38.789062 5.503906 C 38.851562 5.523438 38.90625 5.539062 38.964844 5.550781 Z M 38.964844 5.550781 " fill-opacity="1" fill-rule="nonzero"/><path fill="#d1c8c8" d="M 26.347656 24.699219 C 26.363281 24.605469 26.425781 24.53125 26.476562 24.457031 C 26.667969 24.167969 26.898438 23.914062 27.199219 23.730469 C 27.320312 23.65625 27.449219 23.605469 27.589844 23.59375 C 27.792969 23.578125 27.976562 23.667969 28.058594 23.917969 C 28.105469 24.054688 28.113281 24.199219 28.101562 24.347656 C 28.066406 24.671875 27.953125 24.96875 27.808594 25.257812 C 27.800781 25.277344 27.792969 25.300781 27.785156 25.320312 C 27.289062 25.179688 26.816406 24.976562 26.371094 24.71875 C 26.363281 24.714844 26.355469 24.707031 26.347656 24.699219 Z M 26.347656 24.699219 " fill-opacity="1" fill-rule="nonzero"/><path fill="#d1c8c8" d="M 34.738281 4.609375 C 34.660156 4.9375 34.550781 5.257812 34.394531 5.5625 C 34.316406 5.714844 34.214844 5.855469 34.089844 5.980469 C 34.003906 6.0625 33.90625 6.125 33.785156 6.132812 C 33.683594 6.144531 33.597656 6.101562 33.519531 6.035156 C 33.355469 5.894531 33.265625 5.707031 33.195312 5.507812 C 33.113281 5.277344 33.0625 5.039062 33.035156 4.800781 C 33.019531 4.71875 33.011719 4.636719 33.019531 4.550781 C 33.097656 4.578125 33.183594 4.578125 33.265625 4.574219 C 33.734375 4.5625 34.203125 4.570312 34.671875 4.597656 C 34.695312 4.601562 34.71875 4.605469 34.738281 4.609375 Z M 34.738281 4.609375 " fill-opacity="1" fill-rule="nonzero"/><path fill="#d1c8c8" d="M 47.015625 20.511719 C 46.894531 20.375 46.773438 20.238281 46.675781 20.082031 C 46.570312 19.914062 46.484375 19.738281 46.441406 19.542969 C 46.417969 19.425781 46.417969 19.304688 46.445312 19.1875 C 46.492188 18.996094 46.683594 18.894531 46.835938 18.882812 C 47.0625 18.859375 47.273438 18.914062 47.476562 19.003906 C 47.582031 19.054688 47.691406 19.097656 47.785156 19.175781 C 47.746094 19.324219 47.683594 19.460938 47.617188 19.597656 C 47.457031 19.929688 47.257812 20.234375 47.015625 20.511719 Z M 47.015625 20.511719 " fill-opacity="1" fill-rule="nonzero"/><g clip-path="url(#adf71053e1)"><path fill="#f5d0cb" d="M 53.816406 9.9375 C 53.820312 10.210938 53.75 10.46875 53.671875 10.730469 C 53.648438 10.8125 53.59375 10.894531 53.605469 10.976562 C 53.617188 11.054688 53.671875 11.125 53.710938 11.203125 C 53.835938 11.457031 53.945312 11.71875 53.992188 12.003906 C 54.003906 12.082031 54.007812 12.160156 54 12.242188 C 53.988281 12.382812 53.917969 12.484375 53.796875 12.558594 C 53.660156 12.640625 53.511719 12.683594 53.355469 12.710938 C 53.105469 12.757812 52.851562 12.769531 52.601562 12.765625 C 52.527344 12.765625 52.476562 12.789062 52.425781 12.839844 C 52.257812 13.015625 52.082031 13.183594 51.878906 13.320312 C 51.742188 13.417969 51.597656 13.5 51.433594 13.539062 C 51.296875 13.574219 51.175781 13.542969 51.066406 13.457031 C 50.96875 13.371094 50.890625 13.265625 50.820312 13.15625 C 50.699219 12.953125 50.613281 12.738281 50.539062 12.515625 C 50.511719 12.4375 50.5 12.34375 50.453125 12.285156 C 50.402344 12.226562 50.308594 12.203125 50.234375 12.164062 C 50.027344 12.054688 49.824219 11.929688 49.640625 11.777344 C 49.554688 11.699219 49.472656 11.617188 49.40625 11.519531 C 49.316406 11.386719 49.308594 11.25 49.375 11.101562 C 49.425781 10.988281 49.496094 10.886719 49.578125 10.792969 C 49.753906 10.59375 49.953125 10.425781 50.171875 10.277344 C 50.261719 10.214844 50.304688 10.144531 50.320312 10.035156 C 50.351562 9.769531 50.410156 9.507812 50.511719 9.261719 C 50.550781 9.164062 50.601562 9.066406 50.664062 8.980469 C 50.78125 8.816406 50.9375 8.757812 51.132812 8.792969 C 51.289062 8.824219 51.433594 8.882812 51.574219 8.953125 C 51.777344 9.058594 51.96875 9.1875 52.152344 9.324219 C 52.203125 9.363281 52.25 9.378906 52.316406 9.367188 C 52.605469 9.3125 52.898438 9.28125 53.191406 9.300781 C 53.285156 9.308594 53.371094 9.324219 53.460938 9.347656 C 53.691406 9.414062 53.796875 9.542969 53.816406 9.785156 C 53.820312 9.839844 53.816406 9.886719 53.816406 9.9375 Z M 53.816406 9.9375 " fill-opacity="1" fill-rule="nonzero"/></g><path fill="#f5d0cb" d="M 40.535156 13.132812 C 41.882812 13.121094 43.011719 14.222656 43.003906 15.613281 C 42.992188 16.984375 41.914062 18.078125 40.515625 18.078125 C 39.15625 18.074219 38.046875 16.960938 38.058594 15.574219 C 38.070312 14.242188 39.171875 13.117188 40.535156 13.132812 Z M 39.558594 14.914062 C 39.566406 14.914062 39.585938 14.910156 39.605469 14.910156 C 40.039062 14.871094 40.476562 14.835938 40.910156 14.792969 C 40.949219 14.789062 40.988281 14.785156 41.027344 14.773438 C 41.140625 14.742188 41.222656 14.636719 41.210938 14.519531 C 41.203125 14.398438 41.105469 14.304688 40.984375 14.292969 C 40.933594 14.292969 40.882812 14.292969 40.835938 14.296875 C 40.480469 14.328125 40.125 14.359375 39.769531 14.394531 C 39.664062 14.402344 39.554688 14.402344 39.453125 14.429688 C 39.289062 14.476562 39.214844 14.660156 39.304688 14.796875 C 39.363281 14.882812 39.449219 14.917969 39.558594 14.914062 Z M 40.765625 16.417969 C 40.886719 16.417969 40.980469 16.351562 41.011719 16.242188 C 41.039062 16.144531 41 16.03125 40.90625 15.972656 C 40.875 15.949219 40.835938 15.933594 40.800781 15.921875 C 40.394531 15.777344 39.988281 15.632812 39.585938 15.492188 C 39.550781 15.480469 39.515625 15.46875 39.480469 15.460938 C 39.363281 15.445312 39.253906 15.507812 39.210938 15.613281 C 39.167969 15.71875 39.203125 15.839844 39.304688 15.902344 C 39.328125 15.921875 39.359375 15.9375 39.390625 15.949219 C 39.816406 16.101562 40.238281 16.25 40.664062 16.398438 C 40.695312 16.410156 40.730469 16.421875 40.765625 16.417969 Z M 40.765625 16.417969 " fill-opacity="1" fill-rule="nonzero"/><path fill="#f5d0cb" d="M 29.507812 11.347656 C 30.855469 11.339844 31.976562 12.441406 31.972656 13.824219 C 31.96875 15.203125 30.882812 16.300781 29.484375 16.292969 C 28.125 16.289062 27.011719 15.175781 27.027344 13.785156 C 27.039062 12.457031 28.136719 11.332031 29.507812 11.347656 Z M 30.621094 14.210938 C 30.605469 14.210938 30.574219 14.210938 30.546875 14.21875 C 30.070312 14.304688 29.589844 14.390625 29.109375 14.480469 C 29.066406 14.484375 29.019531 14.496094 28.976562 14.511719 C 28.855469 14.558594 28.789062 14.675781 28.816406 14.800781 C 28.84375 14.914062 28.953125 14.996094 29.078125 14.988281 C 29.121094 14.984375 29.160156 14.976562 29.195312 14.972656 C 29.558594 14.90625 29.917969 14.839844 30.277344 14.773438 C 30.417969 14.746094 30.5625 14.726562 30.699219 14.691406 C 30.828125 14.660156 30.902344 14.546875 30.886719 14.421875 C 30.871094 14.296875 30.769531 14.210938 30.621094 14.210938 Z M 30.59375 13.675781 C 30.753906 13.679688 30.855469 13.601562 30.878906 13.472656 C 30.898438 13.355469 30.828125 13.242188 30.707031 13.199219 C 30.675781 13.1875 30.640625 13.183594 30.609375 13.175781 C 30.230469 13.097656 29.847656 13.019531 29.464844 12.9375 C 29.410156 12.925781 29.347656 12.910156 29.289062 12.914062 C 29.171875 12.917969 29.078125 12.996094 29.054688 13.109375 C 29.03125 13.214844 29.085938 13.324219 29.1875 13.375 C 29.230469 13.398438 29.277344 13.40625 29.320312 13.417969 C 29.632812 13.480469 29.941406 13.546875 30.25 13.613281 C 30.371094 13.632812 30.496094 13.65625 30.59375 13.675781 Z M 30.59375 13.675781 " fill-opacity="1" fill-rule="nonzero"/><path fill="#000000" d="M 34.1875 15.964844 C 34.285156 15.683594 34.375 15.40625 34.472656 15.132812 C 34.484375 15.089844 34.46875 15.070312 34.433594 15.054688 C 34.324219 14.992188 34.226562 14.910156 34.144531 14.8125 C 34.050781 14.699219 33.980469 14.578125 33.957031 14.429688 C 33.917969 14.167969 34.007812 13.957031 34.21875 13.800781 C 34.394531 13.667969 34.597656 13.617188 34.8125 13.617188 C 35.144531 13.621094 35.441406 13.722656 35.691406 13.949219 C 35.796875 14.042969 35.878906 14.15625 35.933594 14.285156 C 36.046875 14.574219 35.964844 14.867188 35.71875 15.050781 C 35.574219 15.160156 35.40625 15.214844 35.226562 15.234375 C 35.164062 15.238281 35.101562 15.238281 35.039062 15.234375 C 34.960938 15.234375 34.957031 15.234375 34.933594 15.308594 C 34.84375 15.566406 34.757812 15.824219 34.671875 16.082031 C 34.667969 16.09375 34.664062 16.105469 34.660156 16.125 C 34.785156 16.164062 34.910156 16.179688 35.035156 16.191406 C 35.167969 16.203125 35.300781 16.207031 35.4375 16.199219 C 35.488281 16.195312 35.535156 16.195312 35.585938 16.210938 C 35.6875 16.246094 35.753906 16.332031 35.757812 16.4375 C 35.761719 16.542969 35.699219 16.636719 35.59375 16.675781 C 35.550781 16.691406 35.503906 16.695312 35.457031 16.699219 C 34.867188 16.730469 34.316406 16.585938 33.789062 16.324219 C 33.65625 16.257812 33.523438 16.1875 33.394531 16.105469 C 33.351562 16.078125 33.320312 16.074219 33.269531 16.105469 C 33.125 16.207031 32.964844 16.269531 32.796875 16.320312 C 32.761719 16.328125 32.726562 16.335938 32.691406 16.335938 C 32.578125 16.332031 32.484375 16.257812 32.457031 16.148438 C 32.429688 16.042969 32.480469 15.933594 32.578125 15.878906 C 32.609375 15.859375 32.652344 15.847656 32.691406 15.835938 C 32.789062 15.804688 32.882812 15.761719 32.972656 15.714844 C 33.125 15.625 33.214844 15.496094 33.238281 15.324219 C 33.25 15.269531 33.253906 15.210938 33.257812 15.15625 C 33.277344 15.007812 33.378906 14.914062 33.519531 14.921875 C 33.648438 14.929688 33.746094 15.03125 33.75 15.175781 C 33.75 15.328125 33.722656 15.476562 33.671875 15.617188 C 33.644531 15.695312 33.648438 15.6875 33.710938 15.726562 C 33.855469 15.8125 34.011719 15.894531 34.1875 15.964844 Z M 34.1875 15.964844 " fill-opacity="1" fill-rule="nonzero"/><path fill="#000000" d="M 32.128906 12.964844 C 32.128906 12.496094 32.496094 12.140625 32.957031 12.152344 C 33.289062 12.160156 33.582031 12.394531 33.683594 12.730469 C 33.816406 13.164062 33.566406 13.632812 33.140625 13.753906 C 32.628906 13.898438 32.125 13.507812 32.128906 12.964844 Z M 32.128906 12.964844 " fill-opacity="1" fill-rule="nonzero"/><path fill="#000000" d="M 37.15625 13.921875 C 37.175781 13.960938 37.210938 13.964844 37.238281 13.980469 C 37.421875 14.078125 37.609375 14.175781 37.792969 14.273438 C 37.832031 14.292969 37.871094 14.316406 37.902344 14.34375 C 37.984375 14.421875 38.007812 14.550781 37.953125 14.648438 C 37.898438 14.746094 37.777344 14.792969 37.667969 14.757812 C 37.628906 14.746094 37.59375 14.726562 37.558594 14.710938 C 37.234375 14.535156 36.914062 14.363281 36.589844 14.191406 C 36.550781 14.171875 36.511719 14.152344 36.476562 14.125 C 36.359375 14.015625 36.359375 13.84375 36.476562 13.738281 C 36.507812 13.710938 36.542969 13.691406 36.578125 13.671875 C 36.925781 13.480469 37.273438 13.289062 37.617188 13.09375 C 37.65625 13.074219 37.695312 13.054688 37.734375 13.042969 C 37.847656 13.015625 37.957031 13.0625 38.011719 13.15625 C 38.066406 13.253906 38.046875 13.378906 37.964844 13.457031 C 37.933594 13.488281 37.894531 13.507812 37.855469 13.53125 C 37.652344 13.644531 37.449219 13.753906 37.242188 13.867188 C 37.214844 13.890625 37.1875 13.90625 37.15625 13.921875 Z M 37.15625 13.921875 " fill-opacity="1" fill-rule="nonzero"/><path fill="#000000" d="M 39.558594 14.914062 C 39.445312 14.917969 39.363281 14.882812 39.304688 14.796875 C 39.214844 14.660156 39.285156 14.480469 39.453125 14.433594 C 39.554688 14.402344 39.664062 14.40625 39.769531 14.398438 C 40.125 14.363281 40.480469 14.332031 40.835938 14.300781 C 40.886719 14.296875 40.9375 14.292969 40.984375 14.296875 C 41.109375 14.304688 41.203125 14.402344 41.210938 14.523438 C 41.222656 14.636719 41.140625 14.746094 41.027344 14.777344 C 40.988281 14.785156 40.949219 14.789062 40.910156 14.796875 C 40.476562 14.835938 40.039062 14.875 39.605469 14.914062 C 39.585938 14.910156 39.566406 14.914062 39.558594 14.914062 Z M 39.558594 14.914062 " fill-opacity="1" fill-rule="nonzero"/><path fill="#000000" d="M 40.765625 16.417969 C 40.730469 16.421875 40.695312 16.410156 40.660156 16.398438 C 40.238281 16.25 39.816406 16.101562 39.390625 15.949219 C 39.359375 15.9375 39.328125 15.921875 39.300781 15.902344 C 39.203125 15.835938 39.167969 15.714844 39.210938 15.613281 C 39.253906 15.507812 39.359375 15.445312 39.476562 15.460938 C 39.511719 15.464844 39.546875 15.480469 39.582031 15.492188 C 39.988281 15.636719 40.394531 15.777344 40.796875 15.921875 C 40.835938 15.9375 40.871094 15.949219 40.90625 15.972656 C 41 16.03125 41.035156 16.140625 41.007812 16.242188 C 40.976562 16.351562 40.886719 16.417969 40.765625 16.417969 Z M 40.765625 16.417969 " fill-opacity="1" fill-rule="nonzero"/><path fill="#000000" d="M 30.621094 14.210938 C 30.769531 14.210938 30.871094 14.296875 30.886719 14.421875 C 30.902344 14.542969 30.828125 14.660156 30.699219 14.691406 C 30.5625 14.726562 30.417969 14.746094 30.277344 14.773438 C 29.917969 14.839844 29.558594 14.90625 29.195312 14.972656 C 29.160156 14.976562 29.117188 14.984375 29.078125 14.988281 C 28.953125 14.996094 28.84375 14.914062 28.816406 14.800781 C 28.789062 14.675781 28.855469 14.558594 28.976562 14.511719 C 29.019531 14.496094 29.066406 14.488281 29.109375 14.480469 C 29.589844 14.390625 30.066406 14.304688 30.546875 14.21875 C 30.578125 14.214844 30.605469 14.210938 30.621094 14.210938 Z M 30.621094 14.210938 " fill-opacity="1" fill-rule="nonzero"/><path fill="#000000" d="M 30.59375 13.675781 C 30.496094 13.65625 30.371094 13.632812 30.246094 13.605469 C 29.9375 13.542969 29.625 13.476562 29.316406 13.414062 C 29.273438 13.402344 29.226562 13.394531 29.183594 13.371094 C 29.082031 13.320312 29.027344 13.210938 29.050781 13.105469 C 29.074219 12.988281 29.164062 12.914062 29.285156 12.90625 C 29.34375 12.90625 29.402344 12.921875 29.460938 12.933594 C 29.84375 13.015625 30.226562 13.09375 30.605469 13.171875 C 30.640625 13.179688 30.671875 13.1875 30.703125 13.195312 C 30.824219 13.238281 30.894531 13.355469 30.871094 13.46875 C 30.855469 13.597656 30.753906 13.675781 30.59375 13.675781 Z M 30.59375 13.675781 " fill-opacity="1" fill-rule="nonzero"/><g transform="matrix(1, 0, 0, 1, 74, 20)"><g clip-path="url(#ad4c67b7a0)"><g clip-path="url(#0498236b08)"><g fill="#000000" fill-opacity="1"><g transform="translate(0.780797, 4.300078)"><g><path d="M 1.5 0.046875 C 1.3125 0.046875 1.140625 0.015625 0.984375 -0.046875 C 0.828125 -0.117188 0.691406 -0.210938 0.578125 -0.328125 C 0.460938 -0.441406 0.375 -0.578125 0.3125 -0.734375 C 0.25 -0.898438 0.21875 -1.082031 0.21875 -1.28125 C 0.21875 -1.46875 0.25 -1.640625 0.3125 -1.796875 C 0.375 -1.960938 0.460938 -2.101562 0.578125 -2.21875 C 0.691406 -2.34375 0.828125 -2.4375 0.984375 -2.5 C 1.140625 -2.5625 1.3125 -2.59375 1.5 -2.59375 C 1.695312 -2.59375 1.878906 -2.554688 2.046875 -2.484375 C 2.222656 -2.410156 2.367188 -2.304688 2.484375 -2.171875 C 2.609375 -2.035156 2.695312 -1.875 2.75 -1.6875 L 2.40625 -1.6875 C 2.34375 -1.863281 2.226562 -2.003906 2.0625 -2.109375 C 1.90625 -2.222656 1.722656 -2.28125 1.515625 -2.28125 C 1.328125 -2.28125 1.160156 -2.234375 1.015625 -2.140625 C 0.867188 -2.054688 0.75 -1.9375 0.65625 -1.78125 C 0.570312 -1.632812 0.53125 -1.46875 0.53125 -1.28125 C 0.53125 -1.082031 0.570312 -0.90625 0.65625 -0.75 C 0.75 -0.601562 0.867188 -0.484375 1.015625 -0.390625 C 1.160156 -0.304688 1.328125 -0.265625 1.515625 -0.265625 C 1.722656 -0.265625 1.910156 -0.320312 2.078125 -0.4375 C 2.253906 -0.550781 2.375 -0.703125 2.4375 -0.890625 L 2.78125 -0.890625 C 2.726562 -0.703125 2.640625 -0.535156 2.515625 -0.390625 C 2.390625 -0.253906 2.238281 -0.144531 2.0625 -0.0625 C 1.894531 0.0078125 1.707031 0.046875 1.5 0.046875 Z M 1.5 0.046875 "/></g></g></g></g><g fill="#000000" fill-opacity="1"><g transform="translate(3.924957, 4.300078)"><g><path d="M 1.328125 0.046875 C 1.015625 0.046875 0.769531 -0.046875 0.59375 -0.234375 C 0.425781 -0.429688 0.34375 -0.695312 0.34375 -1.03125 L 0.34375 -2.546875 L 0.65625 -2.546875 L 0.65625 -1.0625 C 0.65625 -0.800781 0.710938 -0.601562 0.828125 -0.46875 C 0.941406 -0.332031 1.109375 -0.265625 1.328125 -0.265625 C 1.765625 -0.265625 1.984375 -0.53125 1.984375 -1.0625 L 1.984375 -2.546875 L 2.3125 -2.546875 L 2.3125 -1.03125 C 2.3125 -0.695312 2.222656 -0.429688 2.046875 -0.234375 C 1.867188 -0.046875 1.628906 0.046875 1.328125 0.046875 Z M 1.328125 0.046875 "/></g></g></g><g fill="#000000" fill-opacity="1"><g transform="translate(6.751784, 4.300078)"><g><path d="M 0.984375 0 L 0.984375 -2.25 L 0.125 -2.25 L 0.125 -2.546875 L 2.171875 -2.546875 L 2.171875 -2.25 L 1.3125 -2.25 L 1.3125 0 Z M 0.984375 0 "/></g></g></g><g fill="#000000" fill-opacity="1"><g transform="translate(9.217509, 4.300078)"><g><path d="M 0.375 0 L 0.375 -2.546875 L 1.921875 -2.546875 L 1.921875 -2.25 L 0.6875 -2.25 L 0.6875 -1.453125 L 1.828125 -1.453125 L 1.828125 -1.15625 L 0.6875 -1.15625 L 0.6875 -0.296875 L 1.953125 -0.296875 L 1.953125 0 Z M 0.375 0 "/></g></g></g><g fill="#000000" fill-opacity="1"><g transform="translate(11.584752, 4.300078)"><g/></g></g><g fill="#000000" fill-opacity="1"><g transform="translate(12.657134, 4.300078)"><g><path d="M 0.375 0 L 0.375 -2.546875 L 1.25 -2.546875 C 1.507812 -2.546875 1.738281 -2.488281 1.9375 -2.375 C 2.132812 -2.269531 2.285156 -2.125 2.390625 -1.9375 C 2.503906 -1.75 2.5625 -1.53125 2.5625 -1.28125 C 2.5625 -1.03125 2.503906 -0.804688 2.390625 -0.609375 C 2.285156 -0.421875 2.132812 -0.269531 1.9375 -0.15625 C 1.738281 -0.0507812 1.507812 0 1.25 0 Z M 0.6875 -0.3125 L 1.25 -0.3125 C 1.445312 -0.3125 1.617188 -0.347656 1.765625 -0.421875 C 1.910156 -0.503906 2.023438 -0.617188 2.109375 -0.765625 C 2.191406 -0.910156 2.234375 -1.082031 2.234375 -1.28125 C 2.234375 -1.46875 2.191406 -1.632812 2.109375 -1.78125 C 2.023438 -1.925781 1.90625 -2.039062 1.75 -2.125 C 1.601562 -2.207031 1.429688 -2.25 1.234375 -2.25 L 0.6875 -2.25 Z M 0.6875 -0.3125 "/></g></g></g><g fill="#000000" fill-opacity="1"><g transform="translate(15.600682, 4.300078)"><g><path d="M 0.375 0 L 0.375 -2.546875 L 1.921875 -2.546875 L 1.921875 -2.25 L 0.6875 -2.25 L 0.6875 -1.453125 L 1.828125 -1.453125 L 1.828125 -1.15625 L 0.6875 -1.15625 L 0.6875 -0.296875 L 1.953125 -0.296875 L 1.953125 0 Z M 0.375 0 "/></g></g></g><g fill="#000000" fill-opacity="1"><g transform="translate(17.967925, 4.300078)"><g><path d="M 1.078125 0 L 0.0625 -2.546875 L 0.40625 -2.546875 L 0.828125 -1.46875 L 1.234375 -0.46875 L 1.625 -1.46875 L 2.046875 -2.546875 L 2.390625 -2.546875 L 1.375 0 Z M 1.078125 0 "/></g></g></g><g fill="#000000" fill-opacity="1"><g transform="translate(20.590493, 4.300078)"><g><path d="M 0.375 0 L 0.375 -2.546875 L 1.921875 -2.546875 L 1.921875 -2.25 L 0.6875 -2.25 L 0.6875 -1.453125 L 1.828125 -1.453125 L 1.828125 -1.15625 L 0.6875 -1.15625 L 0.6875 -0.296875 L 1.953125 -0.296875 L 1.953125 0 Z M 0.375 0 "/></g></g></g><g fill="#000000" fill-opacity="1"><g transform="translate(22.957736, 4.300078)"><g><path d="M 0.375 0 L 0.375 -2.546875 L 0.6875 -2.546875 L 0.6875 -0.3125 L 1.921875 -0.3125 L 1.921875 0 Z M 0.375 0 "/></g></g></g><g fill="#000000" fill-opacity="1"><g transform="translate(24.971157, 4.300078)"><g><path d="M 1.53125 0.046875 C 1.269531 0.046875 1.039062 -0.0078125 0.84375 -0.125 C 0.644531 -0.238281 0.488281 -0.394531 0.375 -0.59375 C 0.269531 -0.789062 0.21875 -1.019531 0.21875 -1.28125 C 0.21875 -1.53125 0.269531 -1.753906 0.375 -1.953125 C 0.488281 -2.148438 0.644531 -2.304688 0.84375 -2.421875 C 1.039062 -2.535156 1.269531 -2.59375 1.53125 -2.59375 C 1.789062 -2.59375 2.019531 -2.535156 2.21875 -2.421875 C 2.414062 -2.304688 2.566406 -2.148438 2.671875 -1.953125 C 2.785156 -1.753906 2.84375 -1.53125 2.84375 -1.28125 C 2.84375 -1.019531 2.785156 -0.789062 2.671875 -0.59375 C 2.566406 -0.394531 2.414062 -0.238281 2.21875 -0.125 C 2.019531 -0.0078125 1.789062 0.046875 1.53125 0.046875 Z M 0.53125 -1.28125 C 0.53125 -1.082031 0.570312 -0.90625 0.65625 -0.75 C 0.75 -0.601562 0.867188 -0.484375 1.015625 -0.390625 C 1.160156 -0.304688 1.332031 -0.265625 1.53125 -0.265625 C 1.726562 -0.265625 1.898438 -0.304688 2.046875 -0.390625 C 2.191406 -0.484375 2.304688 -0.601562 2.390625 -0.75 C 2.472656 -0.90625 2.515625 -1.082031 2.515625 -1.28125 C 2.515625 -1.476562 2.472656 -1.648438 2.390625 -1.796875 C 2.304688 -1.941406 2.191406 -2.054688 2.046875 -2.140625 C 1.898438 -2.234375 1.726562 -2.28125 1.53125 -2.28125 C 1.332031 -2.28125 1.160156 -2.234375 1.015625 -2.140625 C 0.867188 -2.054688 0.75 -1.941406 0.65625 -1.796875 C 0.570312 -1.648438 0.53125 -1.476562 0.53125 -1.28125 Z M 0.53125 -1.28125 "/></g></g></g><g fill="#000000" fill-opacity="1"><g transform="translate(28.202858, 4.300078)"><g><path d="M 0.375 0 L 0.375 -2.546875 L 1.234375 -2.546875 C 1.421875 -2.546875 1.585938 -2.507812 1.734375 -2.4375 C 1.878906 -2.375 1.988281 -2.273438 2.0625 -2.140625 C 2.144531 -2.015625 2.1875 -1.863281 2.1875 -1.6875 C 2.1875 -1.519531 2.144531 -1.367188 2.0625 -1.234375 C 1.988281 -1.109375 1.878906 -1.007812 1.734375 -0.9375 C 1.585938 -0.875 1.421875 -0.84375 1.234375 -0.84375 L 0.6875 -0.84375 L 0.6875 0 Z M 0.6875 -1.140625 L 1.234375 -1.140625 C 1.648438 -1.140625 1.859375 -1.320312 1.859375 -1.6875 C 1.859375 -2.0625 1.648438 -2.25 1.234375 -2.25 L 0.6875 -2.25 Z M 0.6875 -1.140625 "/></g></g></g><g fill="#000000" fill-opacity="1"><g transform="translate(30.701412, 4.300078)"><g><path d="M 0.375 0 L 0.375 -2.546875 L 1.921875 -2.546875 L 1.921875 -2.25 L 0.6875 -2.25 L 0.6875 -1.453125 L 1.828125 -1.453125 L 1.828125 -1.15625 L 0.6875 -1.15625 L 0.6875 -0.296875 L 1.953125 -0.296875 L 1.953125 0 Z M 0.375 0 "/></g></g></g><g clip-path="url(#18ba3cac6f)"><g fill="#000000" fill-opacity="1"><g transform="translate(33.068655, 4.300078)"><g><path d="M 0.375 0 L 0.375 -2.546875 L 1.34375 -2.546875 C 1.519531 -2.546875 1.671875 -2.507812 1.796875 -2.4375 C 1.929688 -2.375 2.035156 -2.28125 2.109375 -2.15625 C 2.179688 -2.039062 2.21875 -1.898438 2.21875 -1.734375 C 2.21875 -1.523438 2.164062 -1.351562 2.0625 -1.21875 C 1.957031 -1.082031 1.8125 -0.992188 1.625 -0.953125 L 2.265625 0 L 1.875 0 L 1.25 -0.90625 L 0.6875 -0.90625 L 0.6875 0 Z M 0.6875 -1.21875 L 1.3125 -1.21875 C 1.5 -1.21875 1.640625 -1.257812 1.734375 -1.34375 C 1.835938 -1.4375 1.890625 -1.566406 1.890625 -1.734375 C 1.890625 -1.890625 1.835938 -2.015625 1.734375 -2.109375 C 1.640625 -2.203125 1.5 -2.25 1.3125 -2.25 L 0.6875 -2.25 Z M 0.6875 -1.21875 "/></g></g></g></g></g></g></svg>