<svg xmlns="http://www.w3.org/2000/svg" xmlns:xlink="http://www.w3.org/1999/xlink" width="230" zoomAndPan="magnify" viewBox="0 0 172.5 33.749998" height="45" preserveAspectRatio="xMidYMid meet" version="1.0"><defs><g/><clipPath id="bac575caaa"><rect x="0" width="90" y="0" height="23"/></clipPath><clipPath id="6dd76a7afe"><path d="M 9.964844 0.546875 L 51 0.546875 L 51 33.304688 L 9.964844 33.304688 Z M 9.964844 0.546875 " clip-rule="nonzero"/></clipPath><clipPath id="9b59c68347"><path d="M 46 8 L 53.890625 8 L 53.890625 17 L 46 17 Z M 46 8 " clip-rule="nonzero"/></clipPath><clipPath id="f1c6f9d714"><path d="M 46 9 L 53.890625 9 L 53.890625 16 L 46 16 Z M 46 9 " clip-rule="nonzero"/></clipPath><clipPath id="99450b0efb"><path d="M 0.34375 2 L 5 2 L 5 6 L 0.34375 6 Z M 0.34375 2 " clip-rule="nonzero"/></clipPath><clipPath id="92974a1450"><rect x="0" width="49" y="0" height="8"/></clipPath></defs><g transform="matrix(1, 0, 0, 1, 68, -0.000000000000001055)"><g clip-path="url(#bac575caaa)"><g fill="#ffbd59" fill-opacity="1"><g transform="translate(0.641224, 17.858492)"><g><path d="M 6.4375 -6.703125 C 8.300781 -4.910156 9.617188 -3.566406 10.390625 -2.671875 C 10.796875 -2.222656 11 -1.84375 11 -1.53125 C 11 -1.226562 10.753906 -0.863281 10.265625 -0.4375 C 9.773438 -0.0195312 9.375 0.1875 9.0625 0.1875 C 8.757812 0.1875 8.390625 -0.0664062 7.953125 -0.578125 L 3.953125 -5.15625 L 3.953125 -1.609375 C 3.953125 -1.316406 3.941406 -1.101562 3.921875 -0.96875 C 3.898438 -0.832031 3.84375 -0.671875 3.75 -0.484375 C 3.582031 -0.160156 3.109375 0 2.328125 0 C 1.484375 0 0.988281 -0.226562 0.84375 -0.6875 C 0.769531 -0.882812 0.734375 -1.195312 0.734375 -1.625 L 0.734375 -11.734375 C 0.734375 -12.015625 0.738281 -12.222656 0.75 -12.359375 C 0.769531 -12.503906 0.828125 -12.664062 0.921875 -12.84375 C 1.097656 -13.175781 1.570312 -13.34375 2.34375 -13.34375 C 3.195312 -13.34375 3.703125 -13.117188 3.859375 -12.671875 C 3.921875 -12.460938 3.953125 -12.144531 3.953125 -11.71875 L 3.953125 -8.25 C 5.597656 -10.101562 6.929688 -11.625 7.953125 -12.8125 C 8.378906 -13.3125 8.75 -13.5625 9.0625 -13.5625 C 9.375 -13.5625 9.773438 -13.351562 10.265625 -12.9375 C 10.753906 -12.519531 11 -12.15625 11 -11.84375 C 11 -11.53125 10.816406 -11.160156 10.453125 -10.734375 C 9.742188 -9.921875 8.648438 -8.804688 7.171875 -7.390625 Z M 6.4375 -6.703125 "/></g></g></g><g fill="#ffbd59" fill-opacity="1"><g transform="translate(11.417592, 17.858492)"><g><path d="M 8.96875 -12.84375 C 9.070312 -13.03125 9.238281 -13.160156 9.46875 -13.234375 C 9.695312 -13.304688 9.988281 -13.34375 10.34375 -13.34375 C 10.695312 -13.34375 10.972656 -13.3125 11.171875 -13.25 C 11.378906 -13.1875 11.535156 -13.113281 11.640625 -13.03125 C 11.753906 -12.945312 11.84375 -12.828125 11.90625 -12.671875 C 11.96875 -12.460938 12 -12.144531 12 -11.71875 L 12 -1.625 C 12 -1.34375 11.988281 -1.128906 11.96875 -0.984375 C 11.945312 -0.847656 11.890625 -0.691406 11.796875 -0.515625 C 11.628906 -0.179688 11.15625 -0.015625 10.375 -0.015625 C 9.519531 -0.015625 9.023438 -0.238281 8.890625 -0.6875 C 8.816406 -0.894531 8.78125 -1.210938 8.78125 -1.640625 L 8.78125 -5.328125 L 3.953125 -5.328125 L 3.953125 -1.625 C 3.953125 -1.34375 3.941406 -1.128906 3.921875 -0.984375 C 3.898438 -0.847656 3.84375 -0.691406 3.75 -0.515625 C 3.582031 -0.179688 3.109375 -0.015625 2.328125 -0.015625 C 1.484375 -0.015625 0.988281 -0.238281 0.84375 -0.6875 C 0.769531 -0.894531 0.734375 -1.210938 0.734375 -1.640625 L 0.734375 -11.734375 C 0.734375 -12.015625 0.738281 -12.222656 0.75 -12.359375 C 0.769531 -12.503906 0.828125 -12.664062 0.921875 -12.84375 C 1.097656 -13.175781 1.570312 -13.34375 2.34375 -13.34375 C 3.195312 -13.34375 3.703125 -13.117188 3.859375 -12.671875 C 3.921875 -12.460938 3.953125 -12.144531 3.953125 -11.71875 L 3.953125 -8.015625 L 8.78125 -8.015625 L 8.78125 -11.734375 C 8.78125 -12.015625 8.785156 -12.222656 8.796875 -12.359375 C 8.816406 -12.503906 8.875 -12.664062 8.96875 -12.84375 Z M 8.96875 -12.84375 "/></g></g></g><g fill="#ffbd59" fill-opacity="1"><g transform="translate(23.286174, 17.858492)"><g><path d="M 8.421875 -12.390625 L 13.34375 -2.234375 C 13.550781 -1.828125 13.65625 -1.519531 13.65625 -1.3125 C 13.65625 -0.875 13.300781 -0.476562 12.59375 -0.125 C 12.1875 0.0820312 11.863281 0.1875 11.625 0.1875 C 11.382812 0.1875 11.1875 0.128906 11.03125 0.015625 C 10.882812 -0.0859375 10.773438 -0.203125 10.703125 -0.328125 C 10.640625 -0.453125 10.550781 -0.632812 10.4375 -0.875 L 9.484375 -2.84375 L 4.4375 -2.84375 L 3.5 -0.875 C 3.375 -0.632812 3.273438 -0.457031 3.203125 -0.34375 C 3.140625 -0.238281 3.03125 -0.128906 2.875 -0.015625 C 2.726562 0.0976562 2.535156 0.15625 2.296875 0.15625 C 2.066406 0.15625 1.742188 0.0546875 1.328125 -0.140625 C 0.617188 -0.484375 0.265625 -0.875 0.265625 -1.3125 C 0.265625 -1.519531 0.367188 -1.828125 0.578125 -2.234375 L 5.5 -12.421875 C 5.632812 -12.691406 5.835938 -12.910156 6.109375 -13.078125 C 6.378906 -13.253906 6.664062 -13.34375 6.96875 -13.34375 C 7.625 -13.34375 8.109375 -13.023438 8.421875 -12.390625 Z M 6.953125 -8.03125 L 5.75 -5.53125 L 8.171875 -5.53125 Z M 6.953125 -8.03125 "/></g></g></g><g fill="#ffbd59" fill-opacity="1"><g transform="translate(36.35619, 17.858492)"><g/></g></g><g fill="#ffbd59" fill-opacity="1"><g transform="translate(40.105979, 17.858492)"><g><path d="M 1.609375 -13.359375 L 11.71875 -13.359375 C 12.113281 -13.359375 12.398438 -13.3125 12.578125 -13.21875 C 12.753906 -13.132812 12.875 -12.992188 12.9375 -12.796875 C 13 -12.597656 13.03125 -12.34375 13.03125 -12.03125 C 13.03125 -11.71875 13 -11.46875 12.9375 -11.28125 C 12.875 -11.09375 12.773438 -10.960938 12.640625 -10.890625 C 12.421875 -10.773438 12.109375 -10.71875 11.703125 -10.71875 L 8.234375 -10.71875 L 8.234375 -1.5625 C 8.234375 -1.28125 8.222656 -1.070312 8.203125 -0.9375 C 8.179688 -0.8125 8.125 -0.660156 8.03125 -0.484375 C 7.945312 -0.304688 7.785156 -0.179688 7.546875 -0.109375 C 7.316406 -0.0351562 7.015625 0 6.640625 0 C 6.265625 0 5.960938 -0.0351562 5.734375 -0.109375 C 5.515625 -0.179688 5.359375 -0.304688 5.265625 -0.484375 C 5.179688 -0.660156 5.128906 -0.816406 5.109375 -0.953125 C 5.085938 -1.097656 5.078125 -1.304688 5.078125 -1.578125 L 5.078125 -10.71875 L 1.578125 -10.71875 C 1.191406 -10.71875 0.90625 -10.765625 0.71875 -10.859375 C 0.539062 -10.953125 0.421875 -11.09375 0.359375 -11.28125 C 0.296875 -11.476562 0.265625 -11.734375 0.265625 -12.046875 C 0.265625 -12.367188 0.296875 -12.625 0.359375 -12.8125 C 0.421875 -13 0.523438 -13.128906 0.671875 -13.203125 C 0.890625 -13.304688 1.203125 -13.359375 1.609375 -13.359375 Z M 1.609375 -13.359375 "/></g></g></g><g fill="#ffbd59" fill-opacity="1"><g transform="translate(52.557075, 17.858492)"><g><path d="M 10.9375 -2.25 C 11.125 -1.820312 11.21875 -1.507812 11.21875 -1.3125 C 11.21875 -0.851562 10.835938 -0.460938 10.078125 -0.140625 C 9.691406 0.0234375 9.378906 0.109375 9.140625 0.109375 C 8.910156 0.109375 8.71875 0.0507812 8.5625 -0.0625 C 8.414062 -0.175781 8.304688 -0.296875 8.234375 -0.421875 C 8.109375 -0.648438 7.632812 -1.75 6.8125 -3.71875 L 6.25 -3.671875 L 3.953125 -3.671875 L 3.953125 -1.625 C 3.953125 -1.34375 3.941406 -1.128906 3.921875 -0.984375 C 3.898438 -0.847656 3.84375 -0.691406 3.75 -0.515625 C 3.582031 -0.179688 3.109375 -0.015625 2.328125 -0.015625 C 1.484375 -0.015625 0.988281 -0.238281 0.84375 -0.6875 C 0.769531 -0.894531 0.734375 -1.210938 0.734375 -1.640625 L 0.734375 -11.734375 C 0.734375 -12.015625 0.738281 -12.222656 0.75 -12.359375 C 0.769531 -12.503906 0.828125 -12.664062 0.921875 -12.84375 C 1.097656 -13.175781 1.570312 -13.34375 2.34375 -13.34375 L 6.28125 -13.34375 C 7.34375 -13.34375 8.378906 -12.953125 9.390625 -12.171875 C 9.878906 -11.796875 10.28125 -11.285156 10.59375 -10.640625 C 10.90625 -10.003906 11.0625 -9.289062 11.0625 -8.5 C 11.0625 -7.125 10.609375 -5.992188 9.703125 -5.109375 C 9.972656 -4.472656 10.382812 -3.519531 10.9375 -2.25 Z M 3.953125 -6.90625 L 6.28125 -6.90625 C 6.632812 -6.90625 6.984375 -7.035156 7.328125 -7.296875 C 7.679688 -7.566406 7.859375 -7.96875 7.859375 -8.5 C 7.859375 -9.03125 7.679688 -9.429688 7.328125 -9.703125 C 6.984375 -9.984375 6.625 -10.125 6.25 -10.125 L 3.953125 -10.125 Z M 3.953125 -6.90625 "/></g></g></g><g fill="#ffbd59" fill-opacity="1"><g transform="translate(63.187814, 17.858492)"><g><path d="M 8.421875 -12.390625 L 13.34375 -2.234375 C 13.550781 -1.828125 13.65625 -1.519531 13.65625 -1.3125 C 13.65625 -0.875 13.300781 -0.476562 12.59375 -0.125 C 12.1875 0.0820312 11.863281 0.1875 11.625 0.1875 C 11.382812 0.1875 11.1875 0.128906 11.03125 0.015625 C 10.882812 -0.0859375 10.773438 -0.203125 10.703125 -0.328125 C 10.640625 -0.453125 10.550781 -0.632812 10.4375 -0.875 L 9.484375 -2.84375 L 4.4375 -2.84375 L 3.5 -0.875 C 3.375 -0.632812 3.273438 -0.457031 3.203125 -0.34375 C 3.140625 -0.238281 3.03125 -0.128906 2.875 -0.015625 C 2.726562 0.0976562 2.535156 0.15625 2.296875 0.15625 C 2.066406 0.15625 1.742188 0.0546875 1.328125 -0.140625 C 0.617188 -0.484375 0.265625 -0.875 0.265625 -1.3125 C 0.265625 -1.519531 0.367188 -1.828125 0.578125 -2.234375 L 5.5 -12.421875 C 5.632812 -12.691406 5.835938 -12.910156 6.109375 -13.078125 C 6.378906 -13.253906 6.664062 -13.34375 6.96875 -13.34375 C 7.625 -13.34375 8.109375 -13.023438 8.421875 -12.390625 Z M 6.953125 -8.03125 L 5.75 -5.53125 L 8.171875 -5.53125 Z M 6.953125 -8.03125 "/></g></g></g><g fill="#ffbd59" fill-opacity="1"><g transform="translate(76.25783, 17.858492)"><g><path d="M 9.34375 -12.78125 C 9.457031 -13 9.628906 -13.144531 9.859375 -13.21875 C 10.097656 -13.289062 10.390625 -13.328125 10.734375 -13.328125 C 11.078125 -13.328125 11.351562 -13.296875 11.5625 -13.234375 C 11.78125 -13.171875 11.941406 -13.097656 12.046875 -13.015625 C 12.148438 -12.929688 12.222656 -12.804688 12.265625 -12.640625 C 12.335938 -12.441406 12.375 -12.128906 12.375 -11.703125 L 12.375 -1.609375 C 12.375 -1.316406 12.363281 -1.101562 12.34375 -0.96875 C 12.332031 -0.832031 12.273438 -0.671875 12.171875 -0.484375 C 12.003906 -0.160156 11.535156 0 10.765625 0 C 10.285156 0 9.953125 -0.0351562 9.765625 -0.109375 C 9.585938 -0.179688 9.4375 -0.296875 9.3125 -0.453125 C 6.582031 -4.097656 4.789062 -6.476562 3.9375 -7.59375 L 3.9375 -1.609375 C 3.9375 -1.316406 3.925781 -1.101562 3.90625 -0.96875 C 3.882812 -0.832031 3.828125 -0.671875 3.734375 -0.484375 C 3.566406 -0.160156 3.09375 0 2.3125 0 C 1.5625 0 1.097656 -0.160156 0.921875 -0.484375 C 0.828125 -0.671875 0.769531 -0.835938 0.75 -0.984375 C 0.738281 -1.128906 0.734375 -1.34375 0.734375 -1.625 L 0.734375 -11.78125 C 0.734375 -12.238281 0.789062 -12.570312 0.90625 -12.78125 C 1.019531 -13 1.191406 -13.144531 1.421875 -13.21875 C 1.648438 -13.289062 1.945312 -13.328125 2.3125 -13.328125 C 2.675781 -13.328125 2.960938 -13.289062 3.171875 -13.21875 C 3.390625 -13.15625 3.539062 -13.082031 3.625 -13 C 3.664062 -12.957031 3.804688 -12.800781 4.046875 -12.53125 C 6.597656 -9.039062 8.304688 -6.738281 9.171875 -5.625 L 9.171875 -11.78125 C 9.171875 -12.238281 9.226562 -12.570312 9.34375 -12.78125 Z M 9.34375 -12.78125 "/></g></g></g></g></g><g clip-path="url(#6dd76a7afe)"><path fill="#000000" d="M 41.660156 28.105469 C 41.722656 28.136719 41.769531 28.125 41.8125 28.125 C 44.503906 28.113281 47.191406 28.097656 49.882812 28.082031 C 49.953125 28.082031 50.023438 28.078125 50.089844 28.082031 C 50.265625 28.101562 50.398438 28.238281 50.402344 28.410156 C 50.40625 28.578125 50.28125 28.722656 50.105469 28.746094 C 50.042969 28.757812 49.976562 28.757812 49.914062 28.757812 C 46.933594 28.773438 43.957031 28.789062 40.976562 28.804688 C 35.355469 28.839844 29.734375 28.871094 24.113281 28.90625 C 24.074219 28.90625 24.03125 28.90625 23.992188 28.90625 C 23.976562 28.929688 23.980469 28.945312 23.988281 28.960938 C 24.292969 29.640625 24.246094 30.324219 23.96875 30.992188 C 23.582031 31.925781 22.890625 32.539062 21.941406 32.878906 C 21.472656 33.042969 20.992188 33.144531 20.503906 33.175781 C 18.335938 33.304688 16.332031 32.78125 14.484375 31.652344 C 13.960938 31.328125 13.492188 30.929688 13.085938 30.464844 C 12.683594 30 12.382812 29.484375 12.210938 28.898438 C 12.179688 28.800781 12.179688 28.800781 12.066406 28.800781 C 11.527344 28.804688 10.984375 28.804688 10.441406 28.804688 C 10.382812 28.804688 10.324219 28.804688 10.265625 28.800781 C 10.097656 28.773438 9.972656 28.628906 9.976562 28.464844 C 9.980469 28.308594 10.097656 28.167969 10.261719 28.144531 C 10.316406 28.132812 10.371094 28.132812 10.425781 28.132812 C 10.921875 28.128906 11.417969 28.125 11.914062 28.121094 C 11.945312 28.121094 11.976562 28.121094 12.007812 28.121094 C 12.042969 28.121094 12.058594 28.105469 12.054688 28.074219 C 12.054688 28.0625 12.054688 28.046875 12.050781 28.035156 C 11.984375 27.160156 12.1875 26.339844 12.539062 25.546875 C 12.945312 24.636719 13.511719 23.832031 14.171875 23.089844 C 14.214844 23.042969 14.257812 22.996094 14.300781 22.949219 C 14.355469 22.894531 14.375 22.886719 14.285156 22.820312 C 14.207031 22.761719 14.132812 22.699219 14.058594 22.636719 C 13.375 22.074219 12.773438 21.4375 12.285156 20.699219 C 11.726562 19.859375 11.386719 18.9375 11.230469 17.949219 C 10.953125 16.253906 11.144531 14.601562 11.65625 12.972656 C 12.027344 11.789062 12.574219 10.679688 13.195312 9.605469 C 13.511719 9.058594 13.851562 8.527344 14.21875 8.015625 C 14.257812 7.957031 14.289062 7.898438 14.285156 7.828125 C 14.285156 7.785156 14.300781 7.738281 14.3125 7.691406 C 14.757812 6.261719 15.316406 4.875 16.074219 3.574219 C 16.464844 2.902344 16.910156 2.273438 17.464844 1.726562 C 17.71875 1.480469 17.996094 1.261719 18.296875 1.074219 C 18.972656 0.660156 19.703125 0.546875 20.476562 0.679688 C 21.113281 0.792969 21.699219 1.03125 22.265625 1.332031 C 23.09375 1.769531 23.835938 2.324219 24.527344 2.949219 C 24.597656 3.015625 24.667969 3.046875 24.769531 3.042969 C 25.617188 3.023438 26.46875 3.050781 27.316406 3.128906 C 28.53125 3.230469 29.71875 3.476562 30.886719 3.820312 C 31.375 3.964844 31.863281 4.121094 32.335938 4.296875 C 32.429688 4.332031 32.503906 4.324219 32.59375 4.28125 C 33.386719 3.859375 34.210938 3.519531 35.082031 3.300781 C 35.511719 3.191406 35.941406 3.125 36.386719 3.105469 C 36.769531 3.085938 37.144531 3.121094 37.519531 3.214844 C 38.117188 3.367188 38.605469 3.691406 39.015625 4.140625 C 39.460938 4.617188 39.777344 5.175781 40.039062 5.769531 C 40.386719 6.546875 40.621094 7.359375 40.808594 8.191406 C 41.023438 9.171875 41.167969 10.160156 41.238281 11.15625 C 41.253906 11.386719 41.3125 11.597656 41.402344 11.8125 C 41.773438 12.710938 42.085938 13.632812 42.28125 14.585938 C 42.492188 15.613281 42.578125 16.648438 42.527344 17.691406 C 42.507812 18.082031 42.472656 18.472656 42.414062 18.863281 C 42.398438 18.976562 42.398438 18.980469 42.515625 19 C 43.007812 19.101562 43.484375 19.246094 43.933594 19.476562 C 44.054688 19.539062 44.175781 19.609375 44.289062 19.679688 C 45.003906 20.128906 45.394531 20.78125 45.519531 21.601562 C 45.660156 22.546875 45.484375 23.449219 45.121094 24.320312 C 44.824219 25.027344 44.390625 25.644531 43.878906 26.214844 C 43.265625 26.902344 42.566406 27.484375 41.808594 28.007812 C 41.761719 28.035156 41.722656 28.0625 41.660156 28.105469 Z M 41.191406 27.589844 C 41.445312 27.441406 41.683594 27.261719 41.917969 27.082031 C 42.347656 26.753906 42.757812 26.40625 43.128906 26.011719 C 43.285156 25.855469 43.433594 25.699219 43.5625 25.519531 C 43.898438 25.140625 44.167969 24.71875 44.390625 24.269531 C 44.480469 24.082031 44.566406 23.890625 44.621094 23.6875 C 44.625 23.675781 44.632812 23.664062 44.636719 23.652344 C 44.839844 23.027344 44.933594 22.390625 44.84375 21.738281 C 44.753906 21.066406 44.433594 20.546875 43.835938 20.203125 C 43.351562 19.921875 42.828125 19.753906 42.28125 19.652344 C 42.253906 19.691406 42.246094 19.730469 42.238281 19.769531 C 42.128906 20.269531 41.980469 20.757812 41.792969 21.234375 C 41.210938 22.757812 40.269531 24.003906 38.890625 24.90625 C 37.964844 25.515625 36.960938 25.957031 35.902344 26.277344 C 34.175781 26.800781 32.402344 27.03125 30.605469 27.097656 C 29.71875 27.132812 28.835938 27.113281 27.949219 27.050781 C 27.25 27.003906 26.550781 26.9375 25.855469 26.84375 C 24.890625 26.71875 23.925781 26.558594 22.96875 26.359375 C 21.515625 26.058594 20.085938 25.671875 18.699219 25.15625 C 17.398438 24.675781 16.15625 24.09375 15 23.324219 C 14.921875 23.273438 14.921875 23.273438 14.84375 23.355469 C 14.390625 23.832031 13.984375 24.351562 13.640625 24.917969 C 13.265625 25.523438 12.960938 26.164062 12.8125 26.863281 C 12.667969 27.515625 12.679688 28.164062 12.890625 28.804688 C 12.945312 28.992188 13.023438 29.171875 13.121094 29.34375 C 13.445312 29.929688 13.902344 30.394531 14.433594 30.792969 C 14.4375 30.800781 14.449219 30.800781 14.457031 30.800781 C 14.667969 30.976562 14.890625 31.121094 15.132812 31.242188 C 15.140625 31.253906 15.148438 31.261719 15.160156 31.269531 C 15.777344 31.621094 16.425781 31.898438 17.109375 32.09375 C 18.140625 32.410156 19.191406 32.5625 20.269531 32.511719 C 20.726562 32.488281 21.171875 32.414062 21.605469 32.273438 C 22.132812 32.105469 22.59375 31.835938 22.941406 31.398438 C 23.222656 31.046875 23.410156 30.648438 23.480469 30.203125 C 23.550781 29.773438 23.460938 29.378906 23.242188 29.007812 C 23.035156 28.664062 22.761719 28.382812 22.457031 28.132812 C 21.832031 27.621094 21.125 27.242188 20.382812 26.933594 C 20.332031 26.914062 20.28125 26.894531 20.234375 26.863281 C 20.089844 26.777344 20.03125 26.609375 20.085938 26.460938 C 20.148438 26.308594 20.308594 26.21875 20.476562 26.253906 C 20.535156 26.265625 20.59375 26.289062 20.644531 26.308594 C 21.148438 26.511719 21.628906 26.757812 22.09375 27.039062 C 22.589844 27.347656 23.054688 27.695312 23.4375 28.136719 C 23.5 28.203125 23.558594 28.222656 23.640625 28.222656 C 28.191406 28.195312 32.742188 28.167969 37.292969 28.144531 C 38.25 28.140625 39.210938 28.136719 40.167969 28.128906 C 40.222656 28.128906 40.277344 28.136719 40.332031 28.105469 C 40.628906 27.949219 40.921875 27.789062 41.191406 27.589844 Z M 27.175781 3.808594 C 27.015625 3.777344 26.847656 3.773438 26.679688 3.769531 C 26.648438 3.765625 26.617188 3.757812 26.585938 3.753906 C 25.941406 3.71875 25.296875 3.707031 24.652344 3.722656 C 24.535156 3.726562 24.421875 3.726562 24.3125 3.691406 C 24.246094 3.625 24.179688 3.550781 24.109375 3.488281 C 23.421875 2.863281 22.683594 2.3125 21.859375 1.878906 C 21.414062 1.644531 20.953125 1.460938 20.457031 1.355469 C 19.734375 1.207031 19.074219 1.332031 18.472656 1.761719 C 18.28125 1.894531 18.101562 2.046875 17.9375 2.210938 C 17.503906 2.640625 17.144531 3.128906 16.824219 3.648438 C 16.019531 4.957031 15.445312 6.367188 14.984375 7.824219 C 14.96875 7.867188 14.960938 7.914062 14.964844 7.957031 C 14.976562 8.085938 14.921875 8.1875 14.855469 8.289062 C 14.300781 9.054688 13.804688 9.859375 13.363281 10.699219 C 12.789062 11.796875 12.308594 12.933594 12.042969 14.148438 C 11.765625 15.398438 11.691406 16.652344 11.914062 17.917969 C 12.082031 18.839844 12.414062 19.699219 12.957031 20.46875 C 13.4375 21.152344 14.019531 21.738281 14.675781 22.253906 C 15.535156 22.925781 16.476562 23.460938 17.464844 23.917969 C 19.039062 24.640625 20.683594 25.148438 22.367188 25.535156 C 23.699219 25.84375 25.042969 26.070312 26.402344 26.226562 C 27.136719 26.3125 27.875 26.375 28.613281 26.410156 C 29.8125 26.464844 31.007812 26.425781 32.203125 26.308594 C 33.140625 26.210938 34.0625 26.058594 34.980469 25.832031 C 35.960938 25.585938 36.902344 25.242188 37.800781 24.769531 C 39.394531 23.933594 40.519531 22.6875 41.160156 21.007812 C 41.574219 19.925781 41.792969 18.800781 41.851562 17.640625 C 41.902344 16.496094 41.789062 15.363281 41.511719 14.25 C 41.300781 13.417969 41.007812 12.621094 40.675781 11.832031 C 40.625 11.714844 40.59375 11.601562 40.585938 11.476562 C 40.542969 10.839844 40.472656 10.207031 40.375 9.570312 C 40.238281 8.710938 40.058594 7.855469 39.792969 7.027344 C 39.589844 6.394531 39.339844 5.78125 38.988281 5.214844 C 38.78125 4.882812 38.539062 4.582031 38.238281 4.324219 C 37.882812 4.023438 37.464844 3.859375 37.003906 3.804688 C 36.492188 3.742188 35.984375 3.792969 35.488281 3.902344 C 34.53125 4.109375 33.636719 4.480469 32.78125 4.949219 C 32.691406 5 32.601562 5.042969 32.5 5.050781 C 32.417969 5.039062 32.339844 5.015625 32.261719 4.984375 C 31.824219 4.820312 31.382812 4.675781 30.933594 4.539062 C 30.675781 4.464844 30.417969 4.378906 30.15625 4.324219 C 30.050781 4.273438 29.933594 4.269531 29.820312 4.242188 C 29.804688 4.222656 29.78125 4.222656 29.757812 4.214844 C 29.203125 4.078125 28.644531 3.96875 28.078125 3.890625 C 27.777344 3.859375 27.476562 3.8125 27.175781 3.808594 Z M 27.175781 3.808594 " fill-opacity="1" fill-rule="nonzero"/></g><g clip-path="url(#9b59c68347)"><path fill="#000000" d="M 53.613281 11.050781 C 53.609375 11.46875 53.523438 11.875 53.398438 12.273438 C 53.363281 12.375 53.371094 12.457031 53.417969 12.558594 C 53.597656 12.910156 53.738281 13.273438 53.816406 13.660156 C 53.863281 13.902344 53.878906 14.140625 53.835938 14.382812 C 53.773438 14.742188 53.582031 15.015625 53.277344 15.210938 C 52.996094 15.394531 52.679688 15.480469 52.351562 15.539062 C 52.074219 15.589844 51.789062 15.609375 51.503906 15.613281 C 51.417969 15.613281 51.359375 15.640625 51.300781 15.699219 C 51.050781 15.941406 50.785156 16.167969 50.488281 16.351562 C 50.246094 16.503906 49.988281 16.621094 49.703125 16.667969 C 49.378906 16.726562 49.078125 16.660156 48.800781 16.476562 C 48.617188 16.355469 48.472656 16.195312 48.34375 16.023438 C 48.085938 15.667969 47.914062 15.269531 47.773438 14.859375 C 47.742188 14.777344 47.703125 14.722656 47.621094 14.683594 C 47.324219 14.53125 47.039062 14.355469 46.78125 14.144531 C 46.589844 13.984375 46.414062 13.8125 46.273438 13.605469 C 46.011719 13.203125 45.984375 12.789062 46.179688 12.355469 C 46.300781 12.085938 46.484375 11.855469 46.6875 11.644531 C 46.871094 11.453125 47.070312 11.273438 47.289062 11.121094 C 47.398438 11.046875 47.441406 10.960938 47.464844 10.835938 C 47.511719 10.523438 47.59375 10.222656 47.707031 9.925781 C 47.777344 9.753906 47.855469 9.585938 47.960938 9.425781 C 48.316406 8.894531 48.8125 8.699219 49.4375 8.84375 C 49.78125 8.921875 50.09375 9.070312 50.394531 9.246094 C 50.535156 9.328125 50.667969 9.414062 50.796875 9.507812 C 50.875 9.566406 50.949219 9.578125 51.042969 9.5625 C 51.402344 9.503906 51.761719 9.488281 52.125 9.511719 C 52.359375 9.527344 52.585938 9.574219 52.804688 9.667969 C 53.238281 9.847656 53.484375 10.175781 53.574219 10.628906 C 53.609375 10.765625 53.613281 10.910156 53.613281 11.050781 Z M 52.921875 11.054688 C 52.921875 10.988281 52.925781 10.917969 52.921875 10.851562 C 52.890625 10.523438 52.742188 10.34375 52.429688 10.253906 C 52.308594 10.222656 52.1875 10.203125 52.0625 10.191406 C 51.65625 10.167969 51.257812 10.207031 50.855469 10.28125 C 50.769531 10.296875 50.703125 10.277344 50.628906 10.226562 C 50.375 10.035156 50.113281 9.855469 49.832031 9.714844 C 49.640625 9.617188 49.441406 9.539062 49.230469 9.5 C 48.957031 9.449219 48.742188 9.527344 48.582031 9.753906 C 48.496094 9.878906 48.429688 10.003906 48.375 10.140625 C 48.234375 10.480469 48.15625 10.835938 48.109375 11.199219 C 48.089844 11.34375 48.03125 11.445312 47.910156 11.527344 C 47.609375 11.730469 47.332031 11.960938 47.089844 12.234375 C 46.976562 12.363281 46.878906 12.5 46.808594 12.65625 C 46.71875 12.855469 46.734375 13.042969 46.855469 13.226562 C 46.945312 13.363281 47.058594 13.476562 47.179688 13.578125 C 47.429688 13.789062 47.707031 13.957031 47.996094 14.109375 C 48.097656 14.160156 48.222656 14.191406 48.292969 14.273438 C 48.359375 14.355469 48.375 14.480469 48.410156 14.589844 C 48.515625 14.894531 48.632812 15.1875 48.800781 15.464844 C 48.894531 15.617188 49 15.761719 49.140625 15.875 C 49.289062 15.996094 49.453125 16.035156 49.640625 15.988281 C 49.871094 15.933594 50.066406 15.820312 50.257812 15.691406 C 50.535156 15.5 50.777344 15.273438 51.007812 15.03125 C 51.078125 14.957031 51.148438 14.929688 51.246094 14.933594 C 51.597656 14.9375 51.945312 14.921875 52.285156 14.855469 C 52.5 14.816406 52.707031 14.757812 52.894531 14.644531 C 53.058594 14.546875 53.15625 14.40625 53.171875 14.214844 C 53.183594 14.109375 53.179688 13.996094 53.160156 13.886719 C 53.097656 13.5 52.949219 13.144531 52.777344 12.792969 C 52.726562 12.691406 52.648438 12.59375 52.628906 12.484375 C 52.613281 12.375 52.691406 12.257812 52.722656 12.148438 C 52.824219 11.789062 52.921875 11.429688 52.921875 11.054688 Z M 52.921875 11.054688 " fill-opacity="1" fill-rule="nonzero"/></g><path fill="#000000" d="M 43.929688 18.871094 C 43.738281 18.867188 43.601562 18.742188 43.582031 18.574219 C 43.570312 18.5 43.582031 18.429688 43.613281 18.359375 C 43.949219 17.589844 44.378906 16.875 44.972656 16.273438 C 45.484375 15.753906 46.097656 15.382812 46.75 15.074219 C 46.875 15.015625 47 14.960938 47.128906 14.910156 C 47.1875 14.882812 47.25 14.871094 47.316406 14.871094 C 47.46875 14.871094 47.59375 14.960938 47.636719 15.101562 C 47.679688 15.238281 47.632812 15.382812 47.515625 15.46875 C 47.460938 15.511719 47.394531 15.53125 47.332031 15.558594 C 46.988281 15.699219 46.65625 15.867188 46.339844 16.058594 C 45.761719 16.40625 45.289062 16.859375 44.90625 17.414062 C 44.660156 17.78125 44.445312 18.160156 44.269531 18.5625 C 44.246094 18.609375 44.226562 18.664062 44.199219 18.710938 C 44.128906 18.816406 44.027344 18.867188 43.929688 18.871094 Z M 43.929688 18.871094 " fill-opacity="1" fill-rule="nonzero"/><path fill="#ffffff" d="M 26.679688 3.769531 C 26.847656 3.773438 27.011719 3.777344 27.175781 3.808594 C 27.183594 4.03125 27.128906 4.25 27.125 4.472656 C 27.109375 5.15625 27.085938 5.839844 27.257812 6.511719 C 27.328125 6.792969 27.414062 7.070312 27.59375 7.300781 C 27.792969 7.566406 28.074219 7.652344 28.386719 7.449219 C 28.539062 7.351562 28.660156 7.222656 28.765625 7.078125 C 29.074219 6.667969 29.273438 6.203125 29.441406 5.726562 C 29.566406 5.375 29.667969 5.011719 29.738281 4.648438 C 29.765625 4.511719 29.804688 4.382812 29.816406 4.246094 C 29.925781 4.277344 30.042969 4.28125 30.148438 4.328125 C 30.144531 4.375 30.152344 4.421875 30.140625 4.464844 C 30.085938 4.734375 30.09375 5.007812 30.070312 5.277344 C 30.050781 5.480469 30.074219 5.679688 30.097656 5.875 C 30.128906 6.121094 30.175781 6.367188 30.308594 6.578125 C 30.472656 6.84375 30.621094 6.902344 30.875 6.875 C 30.992188 6.863281 31.101562 6.808594 31.203125 6.746094 C 31.453125 6.589844 31.648438 6.375 31.824219 6.148438 C 32.085938 5.8125 32.296875 5.4375 32.496094 5.054688 C 32.597656 5.042969 32.6875 5.003906 32.777344 4.953125 C 33.632812 4.484375 34.527344 4.113281 35.484375 3.90625 C 35.984375 3.796875 36.488281 3.746094 37 3.808594 C 37.460938 3.863281 37.878906 4.03125 38.234375 4.328125 C 38.535156 4.582031 38.777344 4.886719 38.984375 5.21875 C 39.335938 5.785156 39.585938 6.398438 39.789062 7.03125 C 40.058594 7.859375 40.238281 8.714844 40.371094 9.574219 C 40.46875 10.207031 40.539062 10.84375 40.582031 11.480469 C 40.59375 11.605469 40.621094 11.71875 40.671875 11.835938 C 41.003906 12.621094 41.296875 13.421875 41.507812 14.253906 C 41.785156 15.367188 41.898438 16.5 41.847656 17.644531 C 41.792969 18.800781 41.574219 19.925781 41.15625 21.011719 C 40.515625 22.691406 39.390625 23.933594 37.796875 24.773438 C 36.902344 25.246094 35.957031 25.585938 34.976562 25.832031 C 34.0625 26.0625 33.136719 26.214844 32.199219 26.308594 C 31.003906 26.429688 29.808594 26.46875 28.609375 26.410156 C 27.871094 26.378906 27.136719 26.316406 26.402344 26.230469 C 25.042969 26.070312 23.695312 25.84375 22.363281 25.539062 C 20.679688 25.152344 19.035156 24.644531 17.464844 23.921875 C 16.472656 23.46875 15.53125 22.929688 14.671875 22.257812 C 14.015625 21.742188 13.433594 21.15625 12.953125 20.472656 C 12.40625 19.703125 12.078125 18.84375 11.914062 17.921875 C 11.695312 16.652344 11.769531 15.398438 12.042969 14.148438 C 12.308594 12.933594 12.785156 11.796875 13.367188 10.695312 C 13.808594 9.855469 14.304688 9.050781 14.859375 8.285156 C 14.929688 8.183594 14.984375 8.082031 14.964844 7.957031 C 14.960938 7.910156 14.972656 7.863281 14.988281 7.820312 C 15.449219 6.363281 16.019531 4.953125 16.824219 3.644531 C 17.144531 3.128906 17.503906 2.636719 17.941406 2.207031 C 18.105469 2.042969 18.289062 1.894531 18.476562 1.757812 C 19.078125 1.328125 19.742188 1.203125 20.460938 1.351562 C 20.953125 1.457031 21.414062 1.640625 21.859375 1.875 C 22.6875 2.308594 23.425781 2.859375 24.113281 3.484375 C 24.183594 3.550781 24.25 3.621094 24.3125 3.6875 C 24.304688 3.804688 24.320312 3.914062 24.332031 4.027344 C 24.375 4.355469 24.445312 4.679688 24.558594 4.992188 C 24.65625 5.265625 24.777344 5.523438 25.003906 5.71875 C 25.109375 5.808594 25.230469 5.859375 25.367188 5.851562 C 25.53125 5.835938 25.667969 5.75 25.785156 5.640625 C 25.960938 5.476562 26.097656 5.28125 26.207031 5.070312 C 26.421875 4.65625 26.574219 4.222656 26.679688 3.769531 Z M 34.652344 15.425781 C 32.777344 15.402344 31.265625 16.941406 31.246094 18.761719 C 31.230469 20.660156 32.757812 22.179688 34.628906 22.183594 C 36.550781 22.1875 38.035156 20.691406 38.050781 18.816406 C 38.054688 16.917969 36.507812 15.410156 34.652344 15.425781 Z M 19.484375 12.988281 C 17.605469 12.964844 16.09375 14.503906 16.074219 16.320312 C 16.054688 18.222656 17.582031 19.742188 19.449219 19.746094 C 21.375 19.753906 22.867188 18.257812 22.875 16.367188 C 22.878906 14.480469 21.335938 12.972656 19.484375 12.988281 Z M 25.921875 19.300781 C 25.679688 19.203125 25.46875 19.089844 25.257812 18.96875 C 25.171875 18.917969 25.167969 18.921875 25.207031 18.820312 C 25.277344 18.628906 25.316406 18.421875 25.3125 18.214844 C 25.308594 18.019531 25.175781 17.878906 24.996094 17.867188 C 24.804688 17.859375 24.660156 17.988281 24.636719 18.191406 C 24.628906 18.265625 24.621094 18.34375 24.609375 18.421875 C 24.574219 18.65625 24.457031 18.835938 24.246094 18.953125 C 24.121094 19.019531 23.992188 19.078125 23.855469 19.121094 C 23.800781 19.136719 23.75 19.152344 23.699219 19.179688 C 23.5625 19.253906 23.496094 19.40625 23.535156 19.550781 C 23.570312 19.699219 23.699219 19.796875 23.855469 19.804688 C 23.90625 19.804688 23.953125 19.792969 24.003906 19.78125 C 24.234375 19.71875 24.457031 19.625 24.652344 19.492188 C 24.71875 19.445312 24.761719 19.453125 24.824219 19.492188 C 25 19.601562 25.183594 19.699219 25.367188 19.789062 C 26.089844 20.148438 26.851562 20.34375 27.664062 20.300781 C 27.726562 20.296875 27.789062 20.292969 27.851562 20.269531 C 27.992188 20.21875 28.082031 20.085938 28.074219 19.941406 C 28.066406 19.800781 27.976562 19.679688 27.835938 19.636719 C 27.769531 19.613281 27.703125 19.613281 27.632812 19.617188 C 27.449219 19.625 27.265625 19.621094 27.082031 19.605469 C 26.910156 19.59375 26.738281 19.566406 26.566406 19.515625 C 26.574219 19.492188 26.574219 19.476562 26.582031 19.457031 C 26.703125 19.101562 26.824219 18.75 26.941406 18.398438 C 26.980469 18.296875 26.980469 18.296875 27.085938 18.296875 C 27.171875 18.296875 27.257812 18.300781 27.34375 18.296875 C 27.59375 18.273438 27.820312 18.195312 28.023438 18.050781 C 28.363281 17.796875 28.472656 17.390625 28.316406 17 C 28.242188 16.820312 28.128906 16.667969 27.984375 16.539062 C 27.640625 16.234375 27.230469 16.089844 26.773438 16.089844 C 26.480469 16.089844 26.199219 16.15625 25.957031 16.335938 C 25.667969 16.554688 25.542969 16.839844 25.597656 17.199219 C 25.632812 17.398438 25.726562 17.566406 25.855469 17.71875 C 25.96875 17.855469 26.105469 17.964844 26.253906 18.050781 C 26.300781 18.078125 26.324219 18.101562 26.304688 18.15625 C 26.179688 18.535156 26.054688 18.914062 25.921875 19.300781 Z M 23.089844 15.195312 C 23.085938 15.941406 23.777344 16.476562 24.480469 16.277344 C 25.066406 16.109375 25.410156 15.472656 25.230469 14.875 C 25.089844 14.417969 24.683594 14.097656 24.230469 14.085938 C 23.597656 14.066406 23.09375 14.558594 23.089844 15.195312 Z M 30.007812 16.503906 C 30.046875 16.480469 30.085938 16.460938 30.125 16.4375 C 30.40625 16.28125 30.6875 16.128906 30.96875 15.972656 C 31.019531 15.945312 31.074219 15.917969 31.117188 15.875 C 31.230469 15.765625 31.257812 15.59375 31.183594 15.460938 C 31.105469 15.328125 30.953125 15.269531 30.800781 15.304688 C 30.742188 15.320312 30.691406 15.347656 30.640625 15.378906 C 30.164062 15.640625 29.6875 15.90625 29.210938 16.167969 C 29.164062 16.191406 29.113281 16.222656 29.070312 16.253906 C 28.90625 16.398438 28.90625 16.636719 29.070312 16.785156 C 29.117188 16.824219 29.171875 16.851562 29.222656 16.878906 C 29.667969 17.117188 30.113281 17.351562 30.558594 17.585938 C 30.605469 17.613281 30.65625 17.636719 30.710938 17.652344 C 30.863281 17.699219 31.023438 17.636719 31.097656 17.5 C 31.175781 17.371094 31.144531 17.195312 31.03125 17.085938 C 30.988281 17.042969 30.933594 17.019531 30.882812 16.992188 C 30.628906 16.855469 30.371094 16.722656 30.117188 16.585938 C 30.078125 16.566406 30.03125 16.558594 30.007812 16.503906 Z M 30.007812 16.503906 " fill-opacity="1" fill-rule="nonzero"/><path fill="#ffffff" d="M 43.566406 25.519531 C 43.4375 25.695312 43.285156 25.855469 43.132812 26.011719 C 43.0625 25.976562 43.019531 25.914062 42.972656 25.863281 C 42.855469 25.734375 42.746094 25.601562 42.628906 25.476562 C 42.484375 25.320312 42.320312 25.191406 42.15625 25.058594 C 41.875 24.835938 41.574219 24.65625 41.226562 24.546875 C 41.0625 24.496094 40.902344 24.476562 40.738281 24.5 C 40.566406 24.523438 40.414062 24.59375 40.3125 24.746094 C 40.15625 24.972656 40.125 25.234375 40.152344 25.492188 C 40.207031 25.976562 40.398438 26.414062 40.636719 26.832031 C 40.796875 27.105469 40.988281 27.355469 41.191406 27.59375 C 40.921875 27.792969 40.632812 27.953125 40.339844 28.117188 C 40.289062 28.144531 40.234375 28.140625 40.179688 28.140625 C 39.222656 28.144531 38.261719 28.148438 37.304688 28.15625 C 32.753906 28.183594 28.199219 28.207031 23.652344 28.230469 C 23.566406 28.230469 23.507812 28.210938 23.449219 28.144531 C 23.0625 27.707031 22.601562 27.355469 22.101562 27.050781 C 21.644531 26.761719 21.15625 26.523438 20.65625 26.320312 C 20.601562 26.296875 20.542969 26.273438 20.488281 26.265625 C 20.320312 26.226562 20.15625 26.316406 20.097656 26.472656 C 20.042969 26.617188 20.097656 26.785156 20.242188 26.875 C 20.289062 26.90625 20.34375 26.921875 20.390625 26.945312 C 21.132812 27.253906 21.839844 27.628906 22.464844 28.144531 C 22.773438 28.394531 23.042969 28.675781 23.25 29.015625 C 23.476562 29.386719 23.5625 29.78125 23.492188 30.210938 C 23.417969 30.660156 23.230469 31.054688 22.949219 31.40625 C 22.601562 31.84375 22.140625 32.109375 21.617188 32.285156 C 21.179688 32.425781 20.734375 32.5 20.28125 32.519531 C 19.199219 32.578125 18.148438 32.417969 17.121094 32.105469 C 17.128906 32.074219 17.140625 32.042969 17.152344 32.015625 C 17.355469 31.625 17.503906 31.21875 17.550781 30.773438 C 17.574219 30.566406 17.5625 30.371094 17.496094 30.183594 C 17.378906 29.84375 17.128906 29.71875 16.847656 29.742188 C 16.65625 29.757812 16.476562 29.832031 16.3125 29.929688 C 15.898438 30.175781 15.585938 30.523438 15.316406 30.917969 C 15.242188 31.023438 15.164062 31.125 15.140625 31.253906 C 14.902344 31.132812 14.671875 30.984375 14.46875 30.808594 C 14.519531 30.796875 14.550781 30.753906 14.582031 30.71875 C 14.757812 30.527344 14.921875 30.328125 15.078125 30.117188 C 15.371094 29.734375 15.605469 29.320312 15.753906 28.855469 C 15.839844 28.578125 15.902344 28.289062 15.832031 28 C 15.773438 27.746094 15.628906 27.566406 15.367188 27.492188 C 15.285156 27.46875 15.199219 27.453125 15.109375 27.460938 C 14.894531 27.472656 14.683594 27.519531 14.484375 27.605469 C 14.175781 27.746094 13.882812 27.917969 13.621094 28.140625 C 13.429688 28.304688 13.230469 28.46875 13.074219 28.671875 C 13.027344 28.730469 12.980469 28.800781 12.898438 28.8125 C 12.683594 28.171875 12.671875 27.523438 12.816406 26.867188 C 12.96875 26.167969 13.273438 25.53125 13.644531 24.921875 C 13.992188 24.363281 14.394531 23.84375 14.851562 23.359375 C 14.925781 23.277344 14.929688 23.277344 15.007812 23.332031 C 16.160156 24.097656 17.40625 24.683594 18.703125 25.164062 C 20.09375 25.679688 21.523438 26.058594 22.972656 26.367188 C 23.929688 26.566406 24.890625 26.726562 25.863281 26.851562 C 26.558594 26.941406 27.257812 27.007812 27.957031 27.058594 C 28.839844 27.121094 29.726562 27.132812 30.609375 27.105469 C 32.410156 27.039062 34.183594 26.8125 35.910156 26.285156 C 36.964844 25.960938 37.96875 25.523438 38.898438 24.914062 C 40.273438 24.011719 41.214844 22.765625 41.800781 21.242188 C 41.984375 20.765625 42.132812 20.277344 42.246094 19.777344 C 42.257812 19.738281 42.257812 19.695312 42.289062 19.660156 C 42.835938 19.761719 43.359375 19.929688 43.84375 20.210938 C 44.4375 20.554688 44.757812 21.074219 44.851562 21.746094 C 44.941406 22.398438 44.847656 23.035156 44.644531 23.660156 C 44.640625 23.671875 44.628906 23.683594 44.625 23.695312 C 44.5 23.59375 44.351562 23.53125 44.203125 23.464844 C 43.925781 23.339844 43.632812 23.265625 43.324219 23.292969 C 43.113281 23.3125 42.847656 23.453125 42.785156 23.714844 C 42.746094 23.875 42.75 24.039062 42.78125 24.203125 C 42.835938 24.46875 42.957031 24.707031 43.101562 24.9375 C 43.234375 25.144531 43.398438 25.332031 43.566406 25.519531 Z M 43.566406 25.519531 " fill-opacity="1" fill-rule="nonzero"/><path fill="#d1c8c8" d="M 29.816406 4.242188 C 29.808594 4.382812 29.769531 4.511719 29.742188 4.644531 C 29.667969 5.007812 29.566406 5.371094 29.445312 5.722656 C 29.277344 6.199219 29.078125 6.664062 28.769531 7.074219 C 28.660156 7.214844 28.542969 7.34375 28.386719 7.445312 C 28.078125 7.648438 27.796875 7.558594 27.597656 7.296875 C 27.417969 7.066406 27.332031 6.789062 27.261719 6.511719 C 27.09375 5.839844 27.113281 5.152344 27.128906 4.46875 C 27.128906 4.246094 27.183594 4.027344 27.179688 3.804688 C 27.480469 3.808594 27.78125 3.855469 28.078125 3.894531 C 28.644531 3.972656 29.203125 4.078125 29.757812 4.21875 C 29.777344 4.222656 29.800781 4.226562 29.816406 4.242188 Z M 29.816406 4.242188 " fill-opacity="1" fill-rule="nonzero"/><path fill="#d1c8c8" d="M 12.898438 28.804688 C 12.980469 28.796875 13.027344 28.722656 13.074219 28.664062 C 13.234375 28.460938 13.429688 28.296875 13.621094 28.132812 C 13.882812 27.914062 14.171875 27.738281 14.484375 27.601562 C 14.683594 27.511719 14.890625 27.464844 15.109375 27.453125 C 15.199219 27.445312 15.285156 27.460938 15.367188 27.484375 C 15.628906 27.554688 15.773438 27.734375 15.832031 27.992188 C 15.902344 28.289062 15.839844 28.570312 15.753906 28.847656 C 15.605469 29.308594 15.371094 29.722656 15.078125 30.109375 C 14.921875 30.316406 14.757812 30.515625 14.582031 30.710938 C 14.550781 30.746094 14.519531 30.789062 14.46875 30.804688 C 14.457031 30.800781 14.449219 30.800781 14.441406 30.796875 C 13.910156 30.394531 13.453125 29.933594 13.132812 29.347656 C 13.03125 29.175781 12.953125 28.996094 12.898438 28.804688 Z M 12.898438 28.804688 " fill-opacity="1" fill-rule="nonzero"/><path fill="#d1c8c8" d="M 41.191406 27.589844 C 40.980469 27.355469 40.792969 27.101562 40.636719 26.828125 C 40.394531 26.410156 40.203125 25.976562 40.148438 25.488281 C 40.125 25.226562 40.152344 24.96875 40.308594 24.742188 C 40.410156 24.59375 40.5625 24.519531 40.734375 24.496094 C 40.894531 24.476562 41.0625 24.492188 41.222656 24.542969 C 41.570312 24.652344 41.875 24.832031 42.152344 25.054688 C 42.320312 25.1875 42.480469 25.316406 42.625 25.472656 C 42.746094 25.597656 42.855469 25.730469 42.96875 25.859375 C 43.019531 25.914062 43.0625 25.976562 43.128906 26.007812 C 42.757812 26.40625 42.347656 26.753906 41.917969 27.078125 C 41.683594 27.261719 41.449219 27.441406 41.191406 27.589844 Z M 41.191406 27.589844 " fill-opacity="1" fill-rule="nonzero"/><path fill="#d1c8c8" d="M 32.492188 5.054688 C 32.292969 5.4375 32.082031 5.808594 31.820312 6.148438 C 31.644531 6.375 31.449219 6.589844 31.203125 6.746094 C 31.097656 6.8125 30.992188 6.863281 30.871094 6.875 C 30.617188 6.902344 30.46875 6.84375 30.304688 6.578125 C 30.171875 6.367188 30.125 6.121094 30.09375 5.875 C 30.074219 5.679688 30.046875 5.480469 30.066406 5.277344 C 30.09375 5.007812 30.085938 4.734375 30.136719 4.464844 C 30.148438 4.421875 30.140625 4.371094 30.144531 4.328125 C 30.410156 4.382812 30.667969 4.46875 30.925781 4.546875 C 31.375 4.679688 31.8125 4.828125 32.25 4.992188 C 32.335938 5.019531 32.410156 5.042969 32.492188 5.054688 Z M 32.492188 5.054688 " fill-opacity="1" fill-rule="nonzero"/><path fill="#d1c8c8" d="M 15.136719 31.246094 C 15.160156 31.117188 15.242188 31.015625 15.3125 30.910156 C 15.582031 30.519531 15.894531 30.171875 16.308594 29.921875 C 16.476562 29.820312 16.652344 29.75 16.84375 29.734375 C 17.125 29.710938 17.378906 29.835938 17.492188 30.175781 C 17.554688 30.367188 17.570312 30.558594 17.546875 30.765625 C 17.503906 31.210938 17.347656 31.613281 17.148438 32.007812 C 17.136719 32.039062 17.125 32.066406 17.117188 32.097656 C 16.433594 31.898438 15.785156 31.625 15.167969 31.273438 C 15.160156 31.265625 15.148438 31.257812 15.136719 31.246094 Z M 15.136719 31.246094 " fill-opacity="1" fill-rule="nonzero"/><path fill="#d1c8c8" d="M 26.679688 3.769531 C 26.574219 4.222656 26.421875 4.65625 26.207031 5.070312 C 26.097656 5.28125 25.960938 5.476562 25.785156 5.644531 C 25.667969 5.753906 25.53125 5.839844 25.367188 5.851562 C 25.230469 5.867188 25.109375 5.8125 25.003906 5.722656 C 24.777344 5.527344 24.652344 5.269531 24.558594 4.996094 C 24.445312 4.683594 24.375 4.359375 24.332031 4.03125 C 24.316406 3.917969 24.304688 3.808594 24.3125 3.691406 C 24.421875 3.726562 24.539062 3.726562 24.652344 3.722656 C 25.296875 3.707031 25.945312 3.714844 26.589844 3.753906 C 26.617188 3.757812 26.652344 3.765625 26.679688 3.769531 Z M 26.679688 3.769531 " fill-opacity="1" fill-rule="nonzero"/><path fill="#d1c8c8" d="M 43.566406 25.519531 C 43.398438 25.332031 43.234375 25.144531 43.097656 24.929688 C 42.953125 24.699219 42.835938 24.460938 42.777344 24.195312 C 42.746094 24.035156 42.742188 23.871094 42.78125 23.707031 C 42.84375 23.445312 43.113281 23.308594 43.320312 23.289062 C 43.628906 23.257812 43.921875 23.335938 44.199219 23.457031 C 44.347656 23.523438 44.496094 23.585938 44.625 23.6875 C 44.570312 23.890625 44.484375 24.082031 44.390625 24.269531 C 44.171875 24.722656 43.902344 25.140625 43.566406 25.519531 Z M 43.566406 25.519531 " fill-opacity="1" fill-rule="nonzero"/><g clip-path="url(#f1c6f9d714)"><path fill="#f5d0cb" d="M 52.921875 11.054688 C 52.925781 11.429688 52.828125 11.785156 52.722656 12.140625 C 52.691406 12.25 52.613281 12.367188 52.628906 12.476562 C 52.648438 12.585938 52.722656 12.683594 52.777344 12.789062 C 52.949219 13.136719 53.097656 13.492188 53.160156 13.882812 C 53.179688 13.988281 53.183594 14.097656 53.171875 14.210938 C 53.15625 14.398438 53.058594 14.542969 52.894531 14.640625 C 52.707031 14.75 52.5 14.808594 52.285156 14.851562 C 51.945312 14.914062 51.59375 14.933594 51.246094 14.925781 C 51.148438 14.921875 51.074219 14.953125 51.007812 15.023438 C 50.777344 15.265625 50.535156 15.492188 50.257812 15.683594 C 50.066406 15.816406 49.871094 15.925781 49.640625 15.984375 C 49.453125 16.027344 49.289062 15.988281 49.140625 15.867188 C 49 15.753906 48.894531 15.609375 48.800781 15.457031 C 48.632812 15.183594 48.515625 14.886719 48.410156 14.582031 C 48.375 14.476562 48.359375 14.347656 48.292969 14.269531 C 48.222656 14.1875 48.097656 14.152344 47.996094 14.101562 C 47.707031 13.949219 47.425781 13.78125 47.179688 13.570312 C 47.058594 13.46875 46.945312 13.355469 46.855469 13.222656 C 46.734375 13.035156 46.71875 12.851562 46.808594 12.648438 C 46.878906 12.496094 46.976562 12.355469 47.089844 12.230469 C 47.332031 11.957031 47.609375 11.726562 47.910156 11.519531 C 48.03125 11.433594 48.089844 11.339844 48.109375 11.191406 C 48.15625 10.828125 48.234375 10.472656 48.375 10.132812 C 48.429688 10 48.496094 9.867188 48.582031 9.75 C 48.746094 9.523438 48.957031 9.445312 49.230469 9.492188 C 49.445312 9.53125 49.640625 9.613281 49.832031 9.710938 C 50.117188 9.855469 50.378906 10.03125 50.628906 10.21875 C 50.699219 10.269531 50.765625 10.289062 50.855469 10.273438 C 51.253906 10.203125 51.65625 10.160156 52.0625 10.1875 C 52.1875 10.195312 52.308594 10.214844 52.429688 10.25 C 52.746094 10.339844 52.890625 10.515625 52.921875 10.847656 C 52.925781 10.921875 52.921875 10.988281 52.921875 11.054688 Z M 52.921875 11.054688 " fill-opacity="1" fill-rule="nonzero"/></g><path fill="#f5d0cb" d="M 34.652344 15.425781 C 36.507812 15.410156 38.058594 16.917969 38.046875 18.816406 C 38.03125 20.695312 36.546875 22.191406 34.625 22.1875 C 32.753906 22.183594 31.226562 20.660156 31.246094 18.765625 C 31.261719 16.945312 32.777344 15.40625 34.652344 15.425781 Z M 33.308594 17.863281 C 33.316406 17.863281 33.347656 17.859375 33.375 17.859375 C 33.972656 17.804688 34.570312 17.753906 35.167969 17.699219 C 35.222656 17.691406 35.277344 17.683594 35.328125 17.671875 C 35.488281 17.628906 35.597656 17.480469 35.582031 17.324219 C 35.570312 17.160156 35.4375 17.027344 35.269531 17.015625 C 35.199219 17.011719 35.132812 17.015625 35.066406 17.019531 C 34.578125 17.0625 34.085938 17.105469 33.597656 17.152344 C 33.453125 17.164062 33.304688 17.164062 33.164062 17.203125 C 32.9375 17.265625 32.835938 17.515625 32.960938 17.699219 C 33.039062 17.824219 33.15625 17.867188 33.308594 17.863281 Z M 34.96875 19.921875 C 35.132812 19.921875 35.261719 19.828125 35.304688 19.679688 C 35.34375 19.542969 35.292969 19.390625 35.164062 19.308594 C 35.117188 19.28125 35.066406 19.257812 35.015625 19.242188 C 34.457031 19.042969 33.902344 18.847656 33.34375 18.652344 C 33.296875 18.636719 33.25 18.621094 33.199219 18.609375 C 33.039062 18.585938 32.890625 18.671875 32.832031 18.816406 C 32.773438 18.960938 32.824219 19.125 32.957031 19.214844 C 32.996094 19.242188 33.039062 19.261719 33.082031 19.277344 C 33.660156 19.484375 34.246094 19.6875 34.832031 19.894531 C 34.875 19.910156 34.921875 19.925781 34.96875 19.921875 Z M 34.96875 19.921875 " fill-opacity="1" fill-rule="nonzero"/><path fill="#f5d0cb" d="M 19.484375 12.988281 C 21.339844 12.972656 22.882812 14.480469 22.875 16.371094 C 22.867188 18.257812 21.375 19.757812 19.449219 19.75 C 17.582031 19.742188 16.054688 18.222656 16.074219 16.320312 C 16.089844 14.503906 17.601562 12.964844 19.484375 12.988281 Z M 21.015625 16.898438 C 20.996094 16.902344 20.953125 16.902344 20.914062 16.914062 C 20.257812 17.03125 19.597656 17.148438 18.9375 17.265625 C 18.875 17.277344 18.8125 17.289062 18.753906 17.3125 C 18.585938 17.375 18.496094 17.535156 18.535156 17.707031 C 18.574219 17.863281 18.722656 17.972656 18.894531 17.964844 C 18.953125 17.960938 19.003906 17.949219 19.058594 17.941406 C 19.554688 17.851562 20.046875 17.761719 20.542969 17.671875 C 20.738281 17.636719 20.933594 17.605469 21.125 17.558594 C 21.300781 17.515625 21.40625 17.359375 21.382812 17.1875 C 21.363281 17.019531 21.21875 16.902344 21.015625 16.898438 Z M 20.976562 16.171875 C 21.199219 16.171875 21.335938 16.066406 21.367188 15.890625 C 21.398438 15.734375 21.300781 15.574219 21.132812 15.519531 C 21.089844 15.503906 21.046875 15.496094 21.003906 15.488281 C 20.476562 15.378906 19.953125 15.269531 19.425781 15.160156 C 19.347656 15.144531 19.265625 15.121094 19.183594 15.125 C 19.019531 15.132812 18.894531 15.238281 18.863281 15.394531 C 18.828125 15.539062 18.90625 15.6875 19.042969 15.761719 C 19.105469 15.789062 19.167969 15.800781 19.230469 15.816406 C 19.65625 15.90625 20.082031 15.992188 20.507812 16.082031 C 20.671875 16.109375 20.84375 16.144531 20.976562 16.171875 Z M 20.976562 16.171875 " fill-opacity="1" fill-rule="nonzero"/><path fill="#000000" d="M 25.921875 19.300781 C 26.054688 18.914062 26.179688 18.535156 26.3125 18.160156 C 26.332031 18.101562 26.308594 18.078125 26.261719 18.054688 C 26.109375 17.96875 25.976562 17.859375 25.863281 17.722656 C 25.734375 17.570312 25.636719 17.402344 25.605469 17.203125 C 25.550781 16.84375 25.675781 16.554688 25.964844 16.339844 C 26.207031 16.160156 26.488281 16.089844 26.78125 16.089844 C 27.234375 16.09375 27.644531 16.234375 27.988281 16.542969 C 28.132812 16.667969 28.25 16.824219 28.324219 17.003906 C 28.480469 17.394531 28.367188 17.800781 28.027344 18.050781 C 27.828125 18.199219 27.597656 18.277344 27.351562 18.296875 C 27.265625 18.304688 27.175781 18.304688 27.089844 18.300781 C 26.984375 18.296875 26.980469 18.296875 26.949219 18.402344 C 26.828125 18.753906 26.707031 19.109375 26.589844 19.460938 C 26.582031 19.476562 26.578125 19.496094 26.574219 19.515625 C 26.746094 19.574219 26.914062 19.597656 27.085938 19.609375 C 27.269531 19.625 27.453125 19.632812 27.640625 19.621094 C 27.707031 19.617188 27.777344 19.617188 27.84375 19.640625 C 27.984375 19.683594 28.074219 19.804688 28.082031 19.945312 C 28.089844 20.089844 28 20.21875 27.855469 20.273438 C 27.792969 20.296875 27.730469 20.300781 27.667969 20.300781 C 26.855469 20.347656 26.097656 20.152344 25.375 19.792969 C 25.1875 19.703125 25.007812 19.605469 24.832031 19.496094 C 24.769531 19.453125 24.726562 19.449219 24.660156 19.496094 C 24.460938 19.628906 24.242188 19.71875 24.011719 19.785156 C 23.960938 19.796875 23.910156 19.804688 23.863281 19.804688 C 23.707031 19.800781 23.578125 19.699219 23.542969 19.554688 C 23.503906 19.410156 23.570312 19.257812 23.707031 19.183594 C 23.753906 19.15625 23.808594 19.140625 23.863281 19.125 C 23.996094 19.082031 24.128906 19.023438 24.25 18.957031 C 24.460938 18.835938 24.582031 18.65625 24.617188 18.421875 C 24.632812 18.347656 24.636719 18.269531 24.644531 18.195312 C 24.667969 17.988281 24.808594 17.863281 25 17.871094 C 25.183594 17.882812 25.316406 18.023438 25.316406 18.21875 C 25.320312 18.425781 25.285156 18.628906 25.210938 18.824219 C 25.171875 18.929688 25.179688 18.921875 25.265625 18.972656 C 25.464844 19.089844 25.679688 19.207031 25.921875 19.300781 Z M 25.921875 19.300781 " fill-opacity="1" fill-rule="nonzero"/><path fill="#000000" d="M 23.089844 15.195312 C 23.09375 14.558594 23.597656 14.066406 24.230469 14.085938 C 24.683594 14.097656 25.089844 14.417969 25.230469 14.875 C 25.410156 15.472656 25.066406 16.109375 24.480469 16.277344 C 23.777344 16.472656 23.085938 15.9375 23.089844 15.195312 Z M 23.089844 15.195312 " fill-opacity="1" fill-rule="nonzero"/><path fill="#000000" d="M 30.007812 16.503906 C 30.03125 16.558594 30.078125 16.566406 30.117188 16.585938 C 30.371094 16.71875 30.628906 16.855469 30.882812 16.988281 C 30.933594 17.015625 30.988281 17.042969 31.03125 17.082031 C 31.144531 17.191406 31.175781 17.367188 31.097656 17.496094 C 31.023438 17.632812 30.863281 17.699219 30.710938 17.648438 C 30.65625 17.632812 30.605469 17.609375 30.558594 17.582031 C 30.113281 17.347656 29.667969 17.109375 29.222656 16.875 C 29.171875 16.851562 29.117188 16.820312 29.070312 16.78125 C 28.90625 16.632812 28.90625 16.398438 29.070312 16.253906 C 29.113281 16.214844 29.160156 16.191406 29.210938 16.164062 C 29.6875 15.902344 30.164062 15.636719 30.640625 15.375 C 30.691406 15.347656 30.746094 15.320312 30.800781 15.304688 C 30.953125 15.265625 31.105469 15.328125 31.183594 15.457031 C 31.257812 15.59375 31.230469 15.761719 31.117188 15.871094 C 31.074219 15.914062 31.019531 15.941406 30.96875 15.96875 C 30.6875 16.125 30.40625 16.277344 30.125 16.433594 C 30.085938 16.460938 30.046875 16.484375 30.007812 16.503906 Z M 30.007812 16.503906 " fill-opacity="1" fill-rule="nonzero"/><path fill="#000000" d="M 33.308594 17.863281 C 33.152344 17.867188 33.039062 17.824219 32.960938 17.703125 C 32.835938 17.515625 32.933594 17.265625 33.164062 17.203125 C 33.304688 17.164062 33.453125 17.167969 33.597656 17.15625 C 34.085938 17.109375 34.578125 17.066406 35.066406 17.023438 C 35.132812 17.019531 35.203125 17.011719 35.269531 17.019531 C 35.441406 17.03125 35.574219 17.164062 35.582031 17.328125 C 35.597656 17.484375 35.488281 17.632812 35.328125 17.675781 C 35.277344 17.6875 35.21875 17.695312 35.167969 17.699219 C 34.570312 17.753906 33.972656 17.808594 33.375 17.863281 C 33.347656 17.859375 33.320312 17.863281 33.308594 17.863281 Z M 33.308594 17.863281 " fill-opacity="1" fill-rule="nonzero"/><path fill="#000000" d="M 34.96875 19.921875 C 34.921875 19.925781 34.875 19.910156 34.828125 19.894531 C 34.242188 19.6875 33.660156 19.484375 33.078125 19.277344 C 33.035156 19.261719 32.992188 19.242188 32.953125 19.214844 C 32.824219 19.125 32.773438 18.957031 32.828125 18.816406 C 32.890625 18.671875 33.039062 18.585938 33.195312 18.609375 C 33.246094 18.617188 33.296875 18.636719 33.339844 18.652344 C 33.898438 18.851562 34.457031 19.042969 35.011719 19.242188 C 35.066406 19.261719 35.113281 19.28125 35.160156 19.308594 C 35.289062 19.390625 35.34375 19.539062 35.300781 19.679688 C 35.257812 19.828125 35.132812 19.921875 34.96875 19.921875 Z M 34.96875 19.921875 " fill-opacity="1" fill-rule="nonzero"/><path fill="#000000" d="M 21.015625 16.898438 C 21.21875 16.898438 21.359375 17.019531 21.382812 17.1875 C 21.40625 17.355469 21.304688 17.515625 21.125 17.558594 C 20.933594 17.605469 20.738281 17.636719 20.542969 17.671875 C 20.046875 17.761719 19.554688 17.851562 19.058594 17.941406 C 19.003906 17.949219 18.949219 17.960938 18.894531 17.964844 C 18.722656 17.976562 18.570312 17.863281 18.535156 17.707031 C 18.496094 17.535156 18.585938 17.375 18.753906 17.3125 C 18.8125 17.289062 18.875 17.28125 18.9375 17.265625 C 19.597656 17.148438 20.253906 17.03125 20.914062 16.914062 C 20.957031 16.90625 20.996094 16.902344 21.015625 16.898438 Z M 21.015625 16.898438 " fill-opacity="1" fill-rule="nonzero"/><path fill="#000000" d="M 20.976562 16.171875 C 20.84375 16.144531 20.671875 16.109375 20.5 16.074219 C 20.074219 15.988281 19.648438 15.898438 19.222656 15.808594 C 19.160156 15.796875 19.097656 15.78125 19.039062 15.753906 C 18.898438 15.679688 18.824219 15.53125 18.855469 15.386719 C 18.890625 15.230469 19.015625 15.128906 19.175781 15.121094 C 19.257812 15.117188 19.339844 15.140625 19.421875 15.15625 C 19.945312 15.265625 20.472656 15.371094 20.996094 15.480469 C 21.042969 15.492188 21.085938 15.5 21.128906 15.511719 C 21.292969 15.570312 21.390625 15.730469 21.363281 15.882812 C 21.335938 16.0625 21.199219 16.171875 20.976562 16.171875 Z M 20.976562 16.171875 " fill-opacity="1" fill-rule="nonzero"/><g transform="matrix(1, 0, 0, 1, 92, 21)"><g clip-path="url(#92974a1450)"><g clip-path="url(#99450b0efb)"><g fill="#000000" fill-opacity="1"><g transform="translate(0.685317, 5.616878)"><g><path d="M 2.046875 0.0625 C 1.796875 0.0625 1.5625 0.0195312 1.34375 -0.0625 C 1.125 -0.15625 0.9375 -0.28125 0.78125 -0.4375 C 0.625 -0.601562 0.5 -0.796875 0.40625 -1.015625 C 0.320312 -1.234375 0.28125 -1.472656 0.28125 -1.734375 C 0.28125 -1.992188 0.320312 -2.234375 0.40625 -2.453125 C 0.5 -2.679688 0.625 -2.875 0.78125 -3.03125 C 0.9375 -3.195312 1.125 -3.320312 1.34375 -3.40625 C 1.5625 -3.5 1.796875 -3.546875 2.046875 -3.546875 C 2.316406 -3.546875 2.566406 -3.492188 2.796875 -3.390625 C 3.035156 -3.285156 3.234375 -3.140625 3.390625 -2.953125 C 3.554688 -2.765625 3.675781 -2.546875 3.75 -2.296875 L 3.296875 -2.296875 C 3.203125 -2.546875 3.046875 -2.742188 2.828125 -2.890625 C 2.609375 -3.035156 2.351562 -3.109375 2.0625 -3.109375 C 1.800781 -3.109375 1.570312 -3.046875 1.375 -2.921875 C 1.175781 -2.804688 1.019531 -2.644531 0.90625 -2.4375 C 0.789062 -2.238281 0.734375 -2.003906 0.734375 -1.734375 C 0.734375 -1.472656 0.789062 -1.238281 0.90625 -1.03125 C 1.019531 -0.820312 1.175781 -0.660156 1.375 -0.546875 C 1.570312 -0.429688 1.800781 -0.375 2.0625 -0.375 C 2.351562 -0.375 2.613281 -0.445312 2.84375 -0.59375 C 3.070312 -0.75 3.234375 -0.957031 3.328125 -1.21875 L 3.78125 -1.21875 C 3.71875 -0.957031 3.601562 -0.734375 3.4375 -0.546875 C 3.269531 -0.359375 3.066406 -0.207031 2.828125 -0.09375 C 2.585938 0.0078125 2.328125 0.0625 2.046875 0.0625 Z M 2.046875 0.0625 "/></g></g></g></g><g fill="#000000" fill-opacity="1"><g transform="translate(4.963646, 5.616878)"><g><path d="M 1.8125 0.0625 C 1.382812 0.0625 1.050781 -0.0664062 0.8125 -0.328125 C 0.582031 -0.585938 0.46875 -0.953125 0.46875 -1.421875 L 0.46875 -3.484375 L 0.90625 -3.484375 L 0.90625 -1.453125 C 0.90625 -1.097656 0.976562 -0.828125 1.125 -0.640625 C 1.28125 -0.460938 1.507812 -0.375 1.8125 -0.375 C 2.414062 -0.375 2.71875 -0.734375 2.71875 -1.453125 L 2.71875 -3.484375 L 3.15625 -3.484375 L 3.15625 -1.421875 C 3.15625 -0.953125 3.035156 -0.585938 2.796875 -0.328125 C 2.554688 -0.0664062 2.226562 0.0625 1.8125 0.0625 Z M 1.8125 0.0625 "/></g></g></g><g fill="#000000" fill-opacity="1"><g transform="translate(8.810171, 5.616878)"><g><path d="M 1.34375 0 L 1.34375 -3.0625 L 0.171875 -3.0625 L 0.171875 -3.484375 L 2.953125 -3.484375 L 2.953125 -3.0625 L 1.78125 -3.0625 L 1.78125 0 Z M 1.34375 0 "/></g></g></g><g fill="#000000" fill-opacity="1"><g transform="translate(12.165335, 5.616878)"><g><path d="M 0.5 0 L 0.5 -3.484375 L 2.625 -3.484375 L 2.625 -3.078125 L 0.9375 -3.078125 L 0.9375 -1.96875 L 2.5 -1.96875 L 2.5 -1.5625 L 0.9375 -1.5625 L 0.9375 -0.40625 L 2.671875 -0.40625 L 2.671875 0 Z M 0.5 0 "/></g></g></g><g fill="#000000" fill-opacity="1"><g transform="translate(15.386489, 5.616878)"><g/></g></g><g fill="#000000" fill-opacity="1"><g transform="translate(16.845686, 5.616878)"><g><path d="M 0.5 0 L 0.5 -3.484375 L 1.703125 -3.484375 C 2.066406 -3.484375 2.378906 -3.40625 2.640625 -3.25 C 2.910156 -3.101562 3.117188 -2.898438 3.265625 -2.640625 C 3.421875 -2.378906 3.5 -2.078125 3.5 -1.734375 C 3.5 -1.398438 3.421875 -1.097656 3.265625 -0.828125 C 3.117188 -0.566406 2.910156 -0.363281 2.640625 -0.21875 C 2.378906 -0.0703125 2.066406 0 1.703125 0 Z M 0.9375 -0.421875 L 1.703125 -0.421875 C 1.972656 -0.421875 2.207031 -0.472656 2.40625 -0.578125 C 2.601562 -0.691406 2.757812 -0.847656 2.875 -1.046875 C 2.988281 -1.242188 3.046875 -1.472656 3.046875 -1.734375 C 3.046875 -2.003906 2.988281 -2.238281 2.875 -2.4375 C 2.757812 -2.632812 2.597656 -2.785156 2.390625 -2.890625 C 2.191406 -3.003906 1.957031 -3.0625 1.6875 -3.0625 L 0.9375 -3.0625 Z M 0.9375 -0.421875 "/></g></g></g><g fill="#000000" fill-opacity="1"><g transform="translate(20.851035, 5.616878)"><g><path d="M 0.5 0 L 0.5 -3.484375 L 2.625 -3.484375 L 2.625 -3.078125 L 0.9375 -3.078125 L 0.9375 -1.96875 L 2.5 -1.96875 L 2.5 -1.5625 L 0.9375 -1.5625 L 0.9375 -0.40625 L 2.671875 -0.40625 L 2.671875 0 Z M 0.5 0 "/></g></g></g><g fill="#000000" fill-opacity="1"><g transform="translate(24.07219, 5.616878)"><g><path d="M 1.46875 0 L 0.078125 -3.484375 L 0.546875 -3.484375 L 1.125 -2.015625 L 1.671875 -0.625 L 2.21875 -2.015625 L 2.796875 -3.484375 L 3.265625 -3.484375 L 1.875 0 Z M 1.46875 0 "/></g></g></g><g fill="#000000" fill-opacity="1"><g transform="translate(27.640769, 5.616878)"><g><path d="M 0.5 0 L 0.5 -3.484375 L 2.625 -3.484375 L 2.625 -3.078125 L 0.9375 -3.078125 L 0.9375 -1.96875 L 2.5 -1.96875 L 2.5 -1.5625 L 0.9375 -1.5625 L 0.9375 -0.40625 L 2.671875 -0.40625 L 2.671875 0 Z M 0.5 0 "/></g></g></g><g fill="#000000" fill-opacity="1"><g transform="translate(30.861923, 5.616878)"><g><path d="M 0.5 0 L 0.5 -3.484375 L 0.9375 -3.484375 L 0.9375 -0.421875 L 2.640625 -0.421875 L 2.640625 0 Z M 0.5 0 "/></g></g></g><g fill="#000000" fill-opacity="1"><g transform="translate(33.601637, 5.616878)"><g><path d="M 2.09375 0.0625 C 1.738281 0.0625 1.425781 -0.0078125 1.15625 -0.15625 C 0.882812 -0.3125 0.671875 -0.523438 0.515625 -0.796875 C 0.359375 -1.078125 0.28125 -1.390625 0.28125 -1.734375 C 0.28125 -2.085938 0.359375 -2.398438 0.515625 -2.671875 C 0.671875 -2.941406 0.882812 -3.15625 1.15625 -3.3125 C 1.425781 -3.46875 1.738281 -3.546875 2.09375 -3.546875 C 2.445312 -3.546875 2.753906 -3.46875 3.015625 -3.3125 C 3.285156 -3.15625 3.5 -2.941406 3.65625 -2.671875 C 3.8125 -2.398438 3.890625 -2.085938 3.890625 -1.734375 C 3.890625 -1.390625 3.8125 -1.078125 3.65625 -0.796875 C 3.5 -0.523438 3.285156 -0.3125 3.015625 -0.15625 C 2.753906 -0.0078125 2.445312 0.0625 2.09375 0.0625 Z M 0.734375 -1.734375 C 0.734375 -1.472656 0.789062 -1.238281 0.90625 -1.03125 C 1.019531 -0.820312 1.175781 -0.660156 1.375 -0.546875 C 1.582031 -0.429688 1.820312 -0.375 2.09375 -0.375 C 2.351562 -0.375 2.582031 -0.429688 2.78125 -0.546875 C 2.988281 -0.660156 3.148438 -0.820312 3.265625 -1.03125 C 3.378906 -1.238281 3.4375 -1.472656 3.4375 -1.734375 C 3.4375 -2.003906 3.378906 -2.238281 3.265625 -2.4375 C 3.148438 -2.644531 2.988281 -2.804688 2.78125 -2.921875 C 2.582031 -3.046875 2.351562 -3.109375 2.09375 -3.109375 C 1.820312 -3.109375 1.582031 -3.046875 1.375 -2.921875 C 1.175781 -2.804688 1.019531 -2.644531 0.90625 -2.4375 C 0.789062 -2.238281 0.734375 -2.003906 0.734375 -1.734375 Z M 0.734375 -1.734375 "/></g></g></g><g fill="#000000" fill-opacity="1"><g transform="translate(37.999087, 5.616878)"><g><path d="M 0.5 0 L 0.5 -3.484375 L 1.6875 -3.484375 C 1.945312 -3.484375 2.171875 -3.429688 2.359375 -3.328125 C 2.554688 -3.234375 2.707031 -3.097656 2.8125 -2.921875 C 2.914062 -2.753906 2.96875 -2.550781 2.96875 -2.3125 C 2.96875 -2.070312 2.914062 -1.863281 2.8125 -1.6875 C 2.707031 -1.519531 2.554688 -1.382812 2.359375 -1.28125 C 2.171875 -1.1875 1.945312 -1.140625 1.6875 -1.140625 L 0.9375 -1.140625 L 0.9375 0 Z M 0.9375 -1.546875 L 1.671875 -1.546875 C 2.242188 -1.546875 2.53125 -1.800781 2.53125 -2.3125 C 2.53125 -2.8125 2.242188 -3.0625 1.671875 -3.0625 L 0.9375 -3.0625 Z M 0.9375 -1.546875 "/></g></g></g><g fill="#000000" fill-opacity="1"><g transform="translate(41.398921, 5.616878)"><g><path d="M 0.5 0 L 0.5 -3.484375 L 2.625 -3.484375 L 2.625 -3.078125 L 0.9375 -3.078125 L 0.9375 -1.96875 L 2.5 -1.96875 L 2.5 -1.5625 L 0.9375 -1.5625 L 0.9375 -0.40625 L 2.671875 -0.40625 L 2.671875 0 Z M 0.5 0 "/></g></g></g><g fill="#000000" fill-opacity="1"><g transform="translate(44.620075, 5.616878)"><g><path d="M 0.5 0 L 0.5 -3.484375 L 1.828125 -3.484375 C 2.078125 -3.484375 2.289062 -3.4375 2.46875 -3.34375 C 2.644531 -3.25 2.78125 -3.117188 2.875 -2.953125 C 2.976562 -2.785156 3.03125 -2.585938 3.03125 -2.359375 C 3.03125 -2.078125 2.957031 -1.84375 2.8125 -1.65625 C 2.664062 -1.476562 2.46875 -1.359375 2.21875 -1.296875 L 3.078125 0 L 2.5625 0 L 1.703125 -1.25 L 0.9375 -1.25 L 0.9375 0 Z M 0.9375 -1.671875 L 1.78125 -1.671875 C 2.039062 -1.671875 2.238281 -1.726562 2.375 -1.84375 C 2.507812 -1.96875 2.578125 -2.140625 2.578125 -2.359375 C 2.578125 -2.578125 2.507812 -2.75 2.375 -2.875 C 2.238281 -3 2.039062 -3.0625 1.78125 -3.0625 L 0.9375 -3.0625 Z M 0.9375 -1.671875 "/></g></g></g></g></g></svg>